<?xml version="1.0" standalone="no"?>
<!DOCTYPE svg PUBLIC "-//W3C//DTD SVG 20010904//EN"
 "http://www.w3.org/TR/2001/REC-SVG-20010904/DTD/svg10.dtd">
<svg version="1.0" xmlns="http://www.w3.org/2000/svg"
 width="626.000000pt" height="626.000000pt" viewBox="0 0 626.000000 626.000000"
 preserveAspectRatio="xMidYMid meet">
<metadata>
Created by potrace 1.11, written by Peter Selinger 2001-2013
</metadata>
<g transform="translate(0.000000,626.000000) scale(0.100000,-0.100000)"
fill="#000000" stroke="none">
<path d="M5140 5083 c-349 -34 -614 -126 -855 -298 -422 -302 -696 -839 -785
-1540 -31 -240 -33 -656 -6 -850 54 -376 165 -634 364 -846 153 -163 329 -263
545 -310 125 -28 196 -34 372 -33 166 1 246 11 410 54 98 26 144 41 248 82
120 46 359 180 381 213 18 27 58 207 54 242 -4 39 -34 34 -101 -16 -186 -139
-460 -257 -715 -308 -125 -25 -398 -24 -507 1 -419 97 -674 416 -755 941 -38
252 -31 664 16 965 64 402 192 721 387 965 226 281 516 442 867 481 73 8 361
8 388 0 9 -3 37 -8 61 -11 170 -24 372 -119 540 -254 40 -32 72 -51 85 -49 20
3 44 49 105 206 l21 53 -86 56 c-195 127 -391 202 -624 239 -14 2 -41 7 -60
10 -40 7 -297 12 -350 7z"/>
<path d="M1767 4968 c-25 -51 -89 -183 -142 -293 -54 -110 -130 -267 -170
-350 -40 -82 -121 -249 -180 -370 -59 -121 -138 -283 -175 -360 -37 -77 -114
-234 -170 -350 -56 -115 -137 -282 -180 -370 -43 -88 -124 -254 -180 -370
-120 -245 -256 -526 -345 -710 -35 -71 -95 -195 -134 -275 -68 -139 -71 -147
-71 -218 l0 -73 111 5 c61 2 112 6 113 8 1 2 24 57 51 123 26 66 60 147 75
180 83 182 162 348 279 587 l131 267 103 3 c110 4 1453 0 1501 -4 30 -3 38
-16 50 -88 2 -14 18 -92 35 -175 17 -82 33 -159 35 -170 2 -11 11 -54 19 -95
13 -60 49 -263 82 -460 3 -14 8 -57 11 -97 8 -86 1 -83 172 -83 97 0 122 3
122 14 0 7 -50 258 -111 557 -106 526 -215 1063 -223 1104 -3 11 -16 76 -30
145 -39 189 -204 999 -231 1135 -13 66 -58 286 -100 489 -41 202 -75 372 -75
376 0 4 -74 8 -164 9 l-165 2 -44 -93z m196 -393 c15 -66 49 -232 77 -370 28
-137 71 -347 95 -465 45 -219 185 -920 203 -1020 6 -30 8 -57 5 -60 -5 -6
-1293 -8 -1370 -2 l-52 4 19 41 c10 23 41 92 70 152 29 61 72 151 95 200 138
292 467 968 617 1270 198 396 200 400 208 384 4 -8 19 -68 33 -134z"/>
</g>
</svg>
