<?xml version="1.0" encoding="UTF-8"?>
<svg width="255px" height="218px" viewBox="0 0 255 218" version="1.1" xmlns="http://www.w3.org/2000/svg" xmlns:xlink="http://www.w3.org/1999/xlink">
    <!-- Generator: Sketch 57.1 (83088) - https://sketch.com -->
    <title>As_SVG_optimized</title>
    <desc>Created with Sketch.</desc>
    <g id="Page-1" stroke="none" stroke-width="1" fill="none" fill-rule="evenodd">
        <g id="As_SVG_optimized" transform="translate(0.000000, -1.000000)" fill="#1F4470" fill-rule="nonzero">
            <g id="Group" transform="translate(127.500000, 109.687500) scale(-1, 1) rotate(-180.000000) translate(-127.500000, -109.687500) translate(0.000000, 0.937500)">
                <g id="Shape">
                    <g>
                        <path d="M53.175,214.0875 C53.2125,214.0875 53.25,214.0875 53.275,214.0875 C52.7625,204.65 51.075,196.3375 48.2625,189.125 C48.175,189.1375 48.1625,189.0875 48.1625,189.025 C48.25,189.0125 48.2625,189.0625 48.2625,189.1375 C50.05,190.6625 51.5125,192.475 53.3875,193.9125 C55.0875,200 59.35,204.025 64.3125,206.9 C69.35,209.8125 75.675,211.9 83.5,211.9 C83.6125,211.4125 82.925,210.75 82.4875,210.2125 C76.475,202.9625 68.8625,194.8 58.525,191.8125 C57.7625,191.5875 56.8,191.6 56.0375,191.25 C54.9875,190.775 54.1875,189.4875 53.275,188.6 C52.3,187.6625 51.3125,186.825 50.6125,185.85 C50.4875,185.8625 50.425,185.825 50.4125,185.7375 C50.5375,185.725 50.6,185.7625 50.6125,185.85 C56.3,189.7 68.6,190 75.575,187.3 C75.65,186.9875 74.925,186.4875 74.45,186.1375 C67.85,181.325 58.35,176.7625 46.375,177.5625 C45.6,177.6125 44.45,177.8625 43.975,177.7375 C43.2125,177.525 41.475,174.525 41.0125,173.8375 C39.975,172.275 39.1875,171.0375 38.475,169.625 C38.325,169.5625 38.4875,169.5 38.475,169.625 C43.6625,174.2125 53.55,176.6875 63.175,175.025 C63.3125,174.55 62.6125,174.125 62.15,173.65 C55.5375,166.8125 46.9375,161.0375 33.725,160.4875 C32.3,157.8375 31.2125,154.85 30.225,151.7875 C30.075,151.725 30.2375,151.6625 30.225,151.7875 C35.4625,157.4125 42.9875,160.8125 53.925,160.925 C48.4625,151.2125 39.975,144.45 27.375,141.65 C26.5125,138.925 26.1625,135.725 25.65,132.6625 C30.1,139.35 37.75,143.8375 47.6125,145.625 C44.2625,134.05 35.9,126.425 24.875,121.925 C24.7875,118.7375 24.95,115.7 25.1375,112.5625 C28.675,121.225 35.8875,126.3375 45.0625,129.55 C43.4375,116.025 35.9125,108.2125 26.5625,102.175 C27.2375,98.9625 28.0625,95.9 28.9,92.8375 C30.9,103.2 37.8,108.8125 45.6375,113.525 C46.9875,98.725 39.8625,90.375 32.6,83.225 C33.8625,80.1125 35.3625,77.25 37.0125,74.55 C36.7625,86.2375 43.425,92.65 49.75,97.975 C53.9625,85.4375 48.25,72.9625 42.575,65.95 C44.3875,63.225 46.3875,60.725 48.525,58.3375 C46.3125,69.6625 51.9,77.925 56.9625,83.775 C59.525,79.3125 61.225,73.525 60.675,66.65 C60.1875,60.5625 58.05,55.0125 55.9375,50.75 C58.225,48.375 60.825,46.35 63.4375,44.3125 C59.025,53.0625 62.925,65.0625 66.75,71.3375 C69.975,68.05 72.675,62.9875 73.65,57.0875 C74.7125,50.55 73.75,43.775 72.2875,38.325 C74.85,36.3625 77.9625,34.9375 80.9,33.3625 C78.75,36.325 76.825,40.825 76.7375,46.3125 C76.65,51.7 77.525,57.05 79.1,60.9375 C79.475,61.025 80.1,60.4375 80.575,60.025 C87.7375,53.8625 91.825,43 90.8625,29.0625 C100.525,25.2125 112.4125,23.575 124,21.475 C125.65,21.175 127.5125,20.6 128.9125,20.625 C130.375,20.65 132.1375,21.4 133.7875,21.75 C145.1375,24.125 156.95,26.125 166.55,30.2 C165.3375,45.275 169.0625,56.4625 177.375,62.6625 C180.775,55.025 181.55,41.1 176.475,35.05 C176.3875,35.0625 176.375,35.0125 176.375,34.9375 C176.4625,34.925 176.475,34.975 176.475,35.05 C179.45,36.55 182.2375,38.2125 184.825,40.075 C183.2375,45.6 182.1,52.2875 182.9625,58.6875 C183.7875,64.8 186.075,69.775 189.175,73.3625 C193.35,67.5625 197.5625,55.6 193.575,46.575 C193.5375,46.575 193.5,46.575 193.475,46.575 C193.5,46.45 193.575,46.5125 193.575,46.575 C196.1375,48.5625 198.525,50.7375 200.7625,53.05 C198.5625,57.45 196.25,62.7375 195.6125,69 C194.925,75.6375 196.1875,81.5375 198.6625,86.125 C201.2625,83.7875 203.4625,80.5 205.275,76.9625 C207.4375,72.7375 209.3625,66.875 207.925,61.075 C209.9375,63.0875 211.9125,66.025 213.6375,68.6625 C209.65,74.2125 205,80.75 204.3375,89.8625 C204.0625,93.6375 204.525,97.3375 205.4125,100.5 C208.9,98.225 211.9375,95.0625 214.4125,91.4875 C216.8625,87.95 219.15,83.7125 219.0125,77.7125 C220.475,79.975 221.8625,83.2125 223.0375,86.1125 C222.4125,87.2125 221.3,87.9 220.3875,88.775 C214.0375,94.925 208.45,102.9375 209.0125,116.075 C217.075,111.7375 224.25,106.475 226.3125,95.95 C227.2625,98.85 227.8625,102.1 228.45,105.35 C219.1125,111.3 211.075,118.5875 209.1625,132.2125 C218.275,129.175 225.9375,124.625 229.425,115.775 C229.8625,118.5375 229.5875,121.975 229.5875,125.15 C218.4125,129.4375 209.975,136.575 205.8875,148.1875 C215.8875,146.6625 223.625,142.8125 228.375,135.85 C227.975,139.0375 227.2,141.8375 226.5625,144.775 C213.9375,147.225 204.7875,153.825 199.2875,163.2875 C210.225,163.5125 217.9125,160.375 223.275,154.825 C222.1625,157.875 220.9375,160.8 219.4875,163.5125 C205.3875,163.7625 196.1875,169.65 189.3875,177.075 C199.05,179.05 209.0375,176.9 214.45,172.4875 C212.725,175.2875 210.8375,177.925 208.8,180.4125 C194.9375,178.5 184.1875,183.025 176.5875,188.95 C183.6,191.8125 196.0375,192.0875 201.8,188.2125 C200.325,189.975 198.1375,191.9 196.2,193.5375 C182.8875,196.125 175.4,204.725 167.8625,213.275 C181.7625,213.0875 191.25,209.0875 196.7125,200.525 C197.125,199.875 197.45,199.2625 197.7875,198.5625 C198.1,197.9375 198.2625,197.1625 198.65,196.4875 C199.1875,195.5625 200.4875,194.8625 201.4,194.0375 C202.35,193.175 203.175,192.325 204.05,191.5875 C204.1125,191.4375 204.175,191.6 204.05,191.5875 C200.9125,198.6875 199.0625,207.1 198.125,216.4875 C198.1625,216.4875 198.1875,216.4875 198.225,216.4875 C204.9375,211.4875 213.15,204.2875 214.0125,193.2125 C214.35,189.0125 213.4375,185.75 211.9875,182.975 C213.85,180.35 215.85,177.8625 217.6375,175.15 C216.025,183.05 216.5,193.5125 217.6375,201.1875 C217.725,201.425 218.1125,200.925 218.375,200.675 C222.2125,196.9625 225.7625,191.2875 227.375,185.2 C229.3875,177.6125 227.675,169.5 223.4375,165.1375 C224.875,162.2125 226.2625,159.2375 227.4375,156.0375 C227.825,166.5875 230.7875,174.65 233.6625,182.8 C236.95,177.75 240.2375,170.85 239.725,162.7 C239.2125,154.725 235.6375,149.35 230.8375,145.6875 C231.7125,142.6125 232.3875,139.325 232.975,135.9375 C235.6125,146 240.475,153.8875 245.6875,161.45 C246.75,158.275 247.7625,155.175 248.0375,151.3875 C249.025,138.025 242.9375,129.6375 234.2,125.4375 C234.325,122.1 234.425,118.9 234.25,115.65 C238.8,124.225 245.875,131.7875 252.7375,138.1375 C255.1,120.85 246.9875,108.3125 233.2875,104.8125 C232.7,101.6625 232.1625,98.4625 231.35,95.5125 C237.5875,102.7625 246.15,108.65 254.7875,113.9125 C254.8,113.5 254.8,113.075 254.8125,112.6625 C253.9375,104.75 251.0125,98.275 246.8,93.475 C242.6375,88.7375 236.4125,85.3375 227.9875,84.8375 C226.6375,81.85 225.4,78.725 223.8625,75.9125 C231.475,81.6625 241.6,85.875 251.65,89.5875 C249.8875,82.5125 245.8875,76.35 240.5875,72.0125 C235.4125,67.775 227.75,64.575 218.3,66.125 C216.175,63.475 214.375,60.5 212.1875,57.9 C220.8375,62.2375 231.8375,64.2875 243.1875,66.0125 C243.2875,65.325 242.725,64.8 242.3875,64.2375 C239.9,60 236.5125,56.15 232.4625,53.25 C227.7125,49.8375 221.6375,47.375 213.9125,47.6375 C210.5125,47.75 207.6625,48.5625 204.925,49.575 C202.325,47.35 199.9,44.95 197.325,42.6875 C197.2,42.7 197.1375,42.6625 197.125,42.575 C197.25,42.5625 197.3125,42.6 197.3375,42.6875 C206.4125,45.225 219.2875,44.9375 230,44.4625 C230.1625,44 229.625,43.8 229.3875,43.5125 C225.325,38.675 219.3375,34.3 212.2875,32.3 C203.6875,29.8625 193.8,31.6875 188.175,35.8625 C185.3875,33.85 182.25,32.175 179.3125,30.3 C192.025,30.9 202.15,27.925 212.3,25.525 C212.4125,25.0875 211.825,24.8625 211.5875,24.675 C206.4875,20.7375 199.3625,17.275 190.675,16.8375 C180.9875,16.35 173.9875,20.75 168.875,25.3375 C161.1875,21.7875 152.1625,19.525 142.8625,17.525 C148.875,15.725 154.575,13.6 159.7375,10.925 C158.3125,8.3125 158.9,3.65 160.1,1.15 C152.7125,6.4375 143.4375,9.8875 133.3625,12.7875 C132,13.175 130.1625,13.975 129.075,13.9625 C127.975,13.95 126.175,13.075 124.825,12.6375 C114.9625,9.475 105.575,5.675 98.4125,0.1125 C99.425,2.675 99.875,7.275 98.4625,9.8875 C103.4875,12.725 108.9625,15.1 115.0125,16.9375 C105.875,18.85 96.5625,20.6 88.8625,24 C83.8375,19.2625 77.025,14.6875 67.35,14.8 C57.925,14.925 50.5,18.6375 45.25,22.775 C55.4,25.45 65.4,28.825 78.1625,28.625 C75.5,30.25 72.0625,32 69.225,33.7875 C63.525,29.6125 53.875,27.375 45.1375,29.5375 C41.3625,30.475 37.9125,32.2 34.8625,34.1625 C31.7625,36.15 28.9375,38.475 27.0375,41.1125 C37.7625,41.875 50.825,42.75 59.85,40.2875 C57.5125,42.3875 54.5875,44.8125 52.0375,47.0375 C44.7875,43.25 34.1625,44.8 27.975,47.7875 C21.4375,50.9375 16.4125,56.1625 13.0625,62.225 C24.475,60.8875 35.625,59.275 44.3125,55.1375 C42.475,57.6125 40.1625,60.525 38.1375,63.1625 C28.675,61.2375 20.9625,64.3125 15.6625,68.3125 C10.1875,72.4625 6.1,78.325 3.9375,85.5125 C14.15,82.1 24.125,78.425 32.15,72.75 C32.1375,72.6625 32.1875,72.65 32.25,72.65 C32.2625,72.7375 32.2125,72.75 32.15,72.75 C30.6375,75.6 29.1625,78.4875 27.8375,81.5375 C19.1625,81.65 13,85.1375 8.55,89.7625 C4.1,94.375 1.1,101 0.0125,108.9875 C0.0125,109.2625 0,109.5375 0,109.8125 C8.7375,104.6625 17.4,99.425 24.025,92.0875 C24.0875,91.9375 24.15,92.1 24.025,92.0875 C23.2625,95.125 22.4375,98.075 21.9,101.325 C7.975,104.65 -0.25,115.9 1.275,134.1 C8.5,127.6375 15.5,120.925 20.475,112.125 C20.35,115.225 20.1375,118.725 20.3125,121.8125 C14.4875,124.375 9.8625,128.8375 7.3875,135.2375 C4.925,141.625 5.0375,151.3875 7.65,157.625 C12.975,150.0625 18.1625,142.375 21.175,132.4375 C21.5,135.95 22.2375,139.0625 22.8875,142.25 C17.4,146.275 12.875,152.875 13.3875,162.8125 C13.725,169.35 16.2,174.95 18.95,179.25 C22.025,171.175 25.2,163.2 26.05,152.8125 C27.0375,156.0625 28.425,158.9125 29.65,161.925 C27.1125,165.15 24.8625,168.6 24.4625,173.8125 C23.7875,182.5125 27.3125,189.275 30.8,194.1125 C31.9125,195.6625 33.0125,197.225 34.375,198.125 C35.6,190.325 36.6375,180.1 35.1125,172.2125 C36.7875,174.5625 38.775,177.475 40.5,180.1125 C36.5625,186.25 38.4375,195.0875 41.1125,200.325 C44.0625,206.1 48.6125,210.6625 53.175,214.0625 M48.275,189.1125 C48.275,189.05 48.2625,188.9875 48.175,189.0125 C48.175,189.075 48.1875,189.1375 48.275,189.125 M204.0125,191.55 C204.1375,191.5625 204.075,191.4 204.0125,191.55 L204.0125,191.55 M50.6125,185.825 C50.5875,185.75 50.525,185.7 50.4125,185.7125 C50.4375,185.8 50.5,185.8375 50.6125,185.825 M38.4875,169.5875 C38.5,169.4625 38.3375,169.525 38.4875,169.5875 L38.4875,169.5875 M30.2375,151.75 C30.25,151.625 30.0875,151.6875 30.2375,151.75 L30.2375,151.75 M24.025,92.0875 C24.15,92.1 24.0875,91.9375 24.025,92.0875 L24.025,92.0875 M32.15,72.75 C32.2125,72.7375 32.275,72.7375 32.25,72.65 C32.1875,72.65 32.125,72.6625 32.15,72.75 M193.5625,46.5375 C193.5625,46.475 193.475,46.4125 193.4625,46.5375 C193.5,46.5375 193.5375,46.5375 193.5625,46.5375 M197.275,42.6375 C197.25,42.55 197.1875,42.5125 197.075,42.525 C197.1,42.6 197.1625,42.6375 197.2875,42.6375 M176.4625,35.0125 C176.4625,34.95 176.45,34.8875 176.3625,34.9 C176.3625,34.9625 176.375,35.025 176.4625,35.0125 M98.3125,0 C98.3125,0.0625 98.325,0.125 98.4125,0.1125 C98.4125,0.075 98.4125,0.0375 98.4125,0.0125 C98.375,0.0125 98.35,0.0125 98.3125,0.0125"></path>
                        <path d="M76.4125,155.9625 L73.55,140.0875 L79.4875,140.0875 L76.7875,155.9625 L76.4125,155.9625 Z M80.25,135.5 L72.8,135.5 L71.5,127.5125 L66.2625,127.5125 L73.925,168.75 L79.375,168.75 L86.9375,127.5125 L81.4875,127.5125 L80.25,135.5 L80.25,135.5 Z M89.85,127.5125 L89.85,168.75 L95.1375,168.75 L95.1375,131.9875 L104.3125,131.9875 L104.3125,127.5125 L89.85,127.5125 L89.85,127.5125 Z M111.7625,132 L118.725,132 L118.725,168.7625 L124.0125,168.7625 L124.0125,130.925 C124.0125,128.925 122.7125,127.525 120.775,127.525 C116.675,127.525 113.8125,127.525 109.7125,127.525 C107.825,127.525 106.475,128.7625 106.475,130.925 L106.475,168.7625 L111.7625,168.7625 L111.7625,132 L111.7625,132 Z M134.1625,127.5125 L129.0375,127.5125 L129.0375,168.75 L133.0875,168.75 L139.6125,147.05 L140.375,147.05 L147.0125,168.75 L150.9,168.75 L150.9,127.5125 L145.775,127.5125 L145.775,150.025 L140.7625,131.4 L139.0375,131.4 L134.175,149.8625 L134.175,127.5125 L134.1625,127.5125 Z M161,127.5125 L156.0875,127.5125 L156.0875,168.75 L158.8375,168.75 L168.3875,146.1875 L168.3875,168.75 L173.3,168.75 L173.3,127.5125 L170.4375,127.5125 L160.9875,149.325 L160.9875,127.5125 L161,127.5125 Z M178.5375,127.5125 L183.825,127.5125 L183.825,168.75 L178.5375,168.75 L178.5375,127.5125 Z M72.0375,81.5625 L79.275,81.5625 L79.275,91.975 L69.4,104.9875 C68.8625,105.75 68.375,106.2875 68.375,107.25 C68.375,110.7625 68.375,112.375 68.375,116.05 C68.375,117.775 69.725,119.4 71.6125,119.4 C74.8,119.4 76.6375,119.4 79.8125,119.4 C81.8625,119.4 83.05,117.9375 83.05,115.95 L83.05,107.525 L79.375,107.525 L79.375,116 L72.1375,116 L72.1375,107.6875 L81.6375,95.4375 C82.45,94.3625 83.0375,93.55 83.0375,92.3625 C83.0375,87.775 83.0375,86.2125 83.0375,81.625 C83.0375,79.7375 81.8,78.175 79.8,78.175 C76.6125,78.175 74.775,78.175 71.6,78.175 C69.925,78.175 68.3625,79.4125 68.3625,81.575 L68.3625,92.3125 L72.0375,92.3125 L72.0375,81.575 L72.0375,81.5625 Z M101.2375,97.7 L101.2375,116 L92.175,116 L92.175,97.7 L101.2375,97.7 Z M88.5,78.1625 L88.5,119.4 L101.025,119.4 C103.6125,119.4 104.9125,118 104.9125,115.95 C104.9125,108.6125 104.9125,105.15 104.9125,97.8125 C104.9125,95.65 103.5625,94.3 101.3,94.3 L92.175,94.3 L92.175,78.1625 L88.5,78.1625 L88.5,78.1625 Z M117.4875,108.825 L113.55,90.2625 L121.5875,90.2625 L117.8625,108.825 L117.4875,108.825 Z M122.35,86.75 L112.8,86.75 L110.9625,78.1625 L107.35,78.1625 L116.15,119.4 L119.3375,119.4 L128.025,78.1625 L124.1875,78.1625 L122.35,86.75 L122.35,86.75 Z M147.6625,92.5125 L147.6625,81.55 C147.6625,79.55 146.2,78.15 144.425,78.15 C140.6,78.15 138.5375,78.15 134.7125,78.15 C132.825,78.15 131.3125,79.55 131.3125,81.55 C131.3125,95.1 131.3125,102.4375 131.3125,115.9875 C131.3125,117.925 132.825,119.3875 134.55,119.3875 C138.3875,119.3875 140.6,119.3875 144.425,119.3875 C146.2625,119.3875 147.6625,117.875 147.6625,115.9875 L147.6625,107.3 L143.9875,107.3 L143.9875,115.9875 L134.975,115.9875 L134.975,81.55 L143.9875,81.55 L143.9875,92.5125 L147.6625,92.5125 L147.6625,92.5125 Z M152.6875,78.1625 L152.6875,119.4 L165.425,119.4 L165.425,116 L156.3625,116 L156.3625,100.8375 L164.95,100.8375 L164.95,97.3875 L156.3625,97.3875 L156.3625,81.575 L165.5875,81.575 L165.5875,78.175 L152.6875,78.175 L152.6875,78.1625 Z M172.825,81.5625 L180.0625,81.5625 L180.0625,91.975 L170.1875,104.9875 C169.65,105.75 169.1625,106.2875 169.1625,107.25 C169.1625,110.7625 169.1625,112.375 169.1625,116.05 C169.1625,117.775 170.5125,119.4 172.4,119.4 C175.5875,119.4 177.425,119.4 180.6,119.4 C182.65,119.4 183.8375,117.9375 183.8375,115.95 L183.8375,107.525 L180.175,107.525 L180.175,116 L172.9375,116 L172.9375,107.6875 L182.4375,95.4375 C183.25,94.3625 183.8375,93.55 183.8375,92.3625 C183.8375,87.775 183.8375,86.2125 183.8375,81.625 C183.8375,79.7375 182.6,78.175 180.6,78.175 C177.4125,78.175 175.575,78.175 172.4,78.175 C170.725,78.175 169.1625,79.4125 169.1625,81.575 L169.1625,92.3125 L172.8375,92.3125 L172.8375,81.575 L172.825,81.5625 Z"></path>
                    </g>
                </g>
            </g>
        </g>
    </g>
</svg>