<?xml version="1.0" encoding="UTF-8"?>
<svg width="193px" height="148px" viewBox="0 0 193 148" version="1.1" xmlns="http://www.w3.org/2000/svg" xmlns:xlink="http://www.w3.org/1999/xlink">
    <!-- Generator: Sketch 57.1 (83088) - https://sketch.com -->
    <title>Gannett</title>
    <desc>Created with Sketch.</desc>
    <g id="Gannett" stroke="none" stroke-width="1" fill="none" fill-rule="evenodd">
        <polyline id="Fill-2" fill="#1A1919" points="133 112 133 148 152.826786 148 152.826786 140.174 140.885288 140.174 140.885288 133.913 152.826786 133.913 152.826786 126.087 140.885288 126.087 140.885288 119.826 158.909091 119.826 158.909091 148 166.794379 148 166.794379 119.826 174.229424 119.826 174.229424 148 182.114712 148 182.114712 119.826 190 119.826 190 112 133 112"></polyline>
        <path d="M39.6528468,125.914729 L18.8394814,125.914729 L18.8394814,133.269233 L30.59027,133.269233 C29.0196739,136.983079 25.7865009,139.84734 21.5,139.84734 C15.7853248,139.84734 11.1526597,135.214675 11.1526597,129.5 C11.1526597,123.785325 15.7853248,119.15266 21.5,119.15266 C24.980433,119.15266 28.0603047,120.871612 29.9355253,123.506415 L38.9872227,123.447073 C36.4800053,116.203341 29.5972735,111 21.5,111 C11.283213,111 3,119.283213 3,129.5 C3,139.716787 11.283213,148 21.5,148 C31.716787,148 40,139.716787 40,129.5 C40,128.27359 39.8803261,127.074873 39.6528468,125.914729" id="Fill-3" fill="#1A1919"></path>
        <path d="M122.156699,112 L122.156699,133.689571 L104.45279,112 L97.0573351,112 L97.0573351,133.689571 L79.3544264,112 L71.9589711,112 L71.9589711,145.316857 L59.8581348,112 L50.2214507,112 L37,148 L45.5160697,148 L47.9802219,141.292142 L62.098364,141.292142 L64.3395928,148 L79.8022723,148 L79.8022723,124.968857 L98.4018725,148 L104.900636,148 L104.900636,125.192286 L123.725159,148 L130,148 L130,112 L122.156699,112 Z M50.7502687,133.454173 L55.0078038,122.051313 L58.8174929,133.454173 L50.7502687,133.454173 L50.7502687,133.454173 Z" id="Fill-4" fill="#1A1919"></path>
        <path d="M86,104.105617 C91.3595874,105.980907 97.1155106,107 103.105815,107 C114.294758,107 124.494874,103.55634 133,97.5033661 C129.50138,95.5287496 126.761231,94.1550601 123.903388,92.823088 C118.818419,98.5115329 114.436594,101.53206 113.929606,101.970092 C112.125976,103.528529 110.773003,102.192584 112.351304,100.856638 C116.079276,97.7824743 118.958243,94.8483611 121.632001,91.7026818 C118.962267,90.557444 116.481647,89.6744289 114.04227,89 C111.151232,92.0393996 108.022794,94.5791855 104.458789,96.8488026 L104.458789,102.638561 C104.458789,104.864474 101.752841,104.641982 101.752841,102.638561 L101.752841,98.4072398 C96.8187616,101.145679 91.7569291,103.038848 86,104.105617" id="Fill-5" fill="#1A1919"></path>
        <path d="M139.25056,52 C138.919739,37.0493888 132.340735,24.0044854 126,16.0795298 C128.379745,15.0781743 132.132002,13.0956723 135.388029,11 C146.942147,20.5942183 154.602227,35.4114501 155,51.9979791 L139.25056,52" id="Fill-6" fill="#1A1919"></path>
        <path d="M78.0753277,82 C89.3199237,81.4192165 97.7976663,73.7582176 102,63.9383268 L79.1664529,63.9383268 L79.1664529,55 L70,55 C70,59.4652058 70.896925,71.7457584 78.0753277,82" id="Fill-7" fill="#1A1919"></path>
        <path d="M74,82 C69.7231014,74.8222075 66.6086924,64.1140119 66.6086924,55.0019828 L48,55 C48.7028091,69.3228685 59.8946013,80.8668209 74,82" id="Fill-8" fill="#1A1919"></path>
        <path d="M102,43.4321257 L79.206044,43.4321257 L79.206044,52 L70,52 C70,47.6198167 71.0736029,36.7626582 78.115352,25 C87.2711337,25.4507857 95.314108,30.3338062 100.305155,37.1849629 L102,37.1820166 L102,43.4321257" id="Fill-9" fill="#1A1919"></path>
        <path d="M105,37.1058803 L125.900729,37.0624601 C123.776577,31.0379056 120.786881,25.5077495 116.661221,20.6979741 C119.02865,20.0466709 121.267404,19.0904394 123.847952,18 C135.46092,32.5783363 137,46.7165496 137,52 L128.716512,51.9990132 C128.645137,49.0612411 128.320432,46.1856388 127.761498,43.3919429 L105,43.3919429 L105,37.1058803" id="Fill-10" fill="#1A1919"></path>
        <path d="M75,25 C70.7507599,32.0507048 67.3900709,42.9596765 67.2765957,51.9990165 L48,52 C48.6291793,37.6261611 60.3059777,26.026773 75,25" id="Fill-11" fill="#1A1919"></path>
        <path d="M135.338983,96 C146.9984,86.4075662 154.6052,71.6465558 155,55.0010105 L139.21098,55 C138.879348,71.082711 132.369104,82.8951571 126,90.8789156 C128.812947,92.2743808 131.868695,93.9689464 135.338983,96" id="Fill-12" fill="#1A1919"></path>
        <path d="M104.750807,10.0747158 C108.245318,12.3850568 111.335816,14.9427216 114.171826,18 C116.58897,17.3215981 118.99225,16.4316301 121.640117,15.274473 C119.017006,12.1466726 116.15525,9.19964684 112.506264,6.14336166 C110.952598,4.8074164 112.284453,3.47147114 114.06092,5.0299084 C114.562966,5.47091932 119.017006,8.57587463 124.057261,14.2792186 C126.857623,12.9512195 130.264993,11.2646507 133,9.60887319 C124.627632,3.55490564 114.420373,0 103.405089,0 C97.8281311,0 92.0293624,1.01114667 87,2.69672222 C92.3828734,3.79031012 97.465708,5.758967 102.09997,8.43483059 L102.073234,4.3624324 C102.073234,2.35801788 104.736944,2.13552588 104.736944,4.3624324 L104.736944,10.0747158 L104.750807,10.0747158" id="Fill-13" fill="#1A1919"></path>
        <path d="M123.178781,90 C134.59751,74.990291 136,60.4421227 136,55.0020288 L127.885242,55 C127.557502,67.2343786 123.144333,78.4178646 116,87.1496058 C118.191821,87.7825759 120.821613,88.9389636 123.178781,90" id="Fill-14" fill="#1A1919"></path>
    </g>
</svg>