<svg xmlns="http://www.w3.org/2000/svg" width="296" height="296" viewBox="0 0 296 296">
  <g fill="none" fill-rule="evenodd">
    <path stroke="#231F20" stroke-width=".9" d="M147.737932,0.938018619 C66.6931238,1.03182048 1.03182048,66.6931238 1.03182048,147.737932 C1.03182048,228.782741 66.7869256,294.537846 147.831734,294.537846 C228.876543,294.537846 294.537846,228.782741 294.537846,147.737932 C294.537846,66.6931238 228.876543,0.938018619 147.737932,0.938018619 C147.737932,0.938018619 147.737932,1.03182048 147.737932,0.938018619 Z M147.737932,222.310413 C106.558915,222.310413 73.2592541,188.91695 73.2592541,147.737932 C73.2592541,106.558915 106.652717,73.1654522 147.831734,73.1654522 C189.010752,73.1654522 222.310413,106.558915 222.310413,147.737932 C222.310413,188.91695 189.010752,222.310413 147.737932,222.310413 C147.831734,222.310413 147.737932,222.310413 147.737932,222.310413 L147.737932,222.310413 Z"/>
    <path stroke="#231F20" stroke-width=".9" d="M147.737932,73.2592541 C106.558915,73.2592541 73.2592541,106.652717 73.2592541,147.831734 C73.2592541,189.010752 106.652717,222.310413 147.831734,222.310413 C189.010752,222.310413 222.310413,188.91695 222.310413,147.737932 C222.310413,106.558915 188.91695,73.1654522 147.737932,73.2592541 C147.737932,73.1654522 147.737932,73.2592541 147.737932,73.2592541 Z"/>
    <path fill="#002856" fill-rule="nonzero" d="M147.737932,0.469009309 C66.5055201,0.469009309 0.469009309,66.5055201 0.469009309,147.737932 C0.469009309,228.970345 66.5055201,295.006856 147.737932,295.006856 C228.970345,295.006856 295.006856,228.970345 295.006856,147.737932 C295.006856,66.5055201 228.970345,0.469009309 147.737932,0.469009309 Z M147.737932,293.975035 C67.0683312,293.975035 1.50082979,228.407534 1.50082979,147.737932 C1.50082979,67.0683312 67.1621331,1.50082979 147.737932,1.50082979 C228.313732,1.50082979 293.975035,67.0683312 293.975035,147.737932 C293.975035,228.407534 228.407534,293.975035 147.737932,293.975035 L147.737932,293.975035 Z"/>
    <path stroke="#002856" stroke-width=".9" d="M147.737932,0.469009309 C66.5055201,0.469009309 0.469009309,66.5055201 0.469009309,147.737932 C0.469009309,228.970345 66.5055201,295.006856 147.737932,295.006856 C228.970345,295.006856 295.006856,228.970345 295.006856,147.737932 C295.006856,66.5055201 228.970345,0.469009309 147.737932,0.469009309 Z M147.737932,293.975035 C67.0683312,293.975035 1.50082979,228.407534 1.50082979,147.737932 C1.50082979,67.0683312 67.1621331,1.50082979 147.737932,1.50082979 C228.313732,1.50082979 293.975035,67.0683312 293.975035,147.737932 C293.975035,228.407534 228.407534,293.975035 147.737932,293.975035 L147.737932,293.975035 Z"/>
    <g fill-rule="nonzero" transform="translate(38.459 41.273)">
      <path fill="#002856" d="M108.434952,0.187603724 C48.87077,0.187603724 0.562811171,48.4955626 0.562811171,108.059745 C0.562811171,167.623927 48.87077,215.931886 108.434952,215.931886 C167.999135,215.931886 216.307093,167.623927 216.307093,108.059745 C216.307093,48.4955626 167.999135,0.187603724 108.434952,0.187603724 L108.434952,0.187603724 Z M109.279169,181.037593 C68.1001517,181.037593 34.8004907,147.644131 34.8004907,106.465113 C34.8004907,65.2860958 68.1939536,31.9864349 109.372971,31.9864349 C150.551988,31.9864349 183.851649,65.3798977 183.851649,106.465113 C183.851649,147.644131 150.551988,181.037593 109.279169,181.037593 C109.372971,181.037593 109.279169,181.037593 109.279169,181.037593 Z"/>
      <path fill="#FFF" stroke="#002856" stroke-width=".9" d="M203.831446,122.692835 L206.270294,118.659355 L204.01905,127.94574 L198.109532,129.634173 C197.265315,133.292446 196.045891,136.950718 194.638863,140.515189 L198.859947,140.139982 L202.04921,136.669313 L198.109532,145.392886 L192.200015,145.955697 C190.323978,149.61397 188.166535,153.17844 185.727686,156.461506 L190.230176,156.930515 L193.98225,154.116459 L188.44794,161.902014 L182.069414,161.339202 C181.225197,162.371023 180.474782,163.309041 179.630565,164.340862 C177.84833,166.498305 175.972293,168.561946 174.002454,170.437983 L178.129736,172.126416 L182.538423,170.437983 L174.940472,176.441302 L169.687568,174.283859 C167.061116,176.441302 164.340862,178.504943 161.526806,180.38098 L164.997475,182.444621 L169.593766,181.506603 L161.245401,186.290498 L156.461506,183.476442 C153.084639,185.352479 149.707772,187.134714 146.143301,188.635544 L149.238762,191.074393 L153.928855,190.699185 L145.017678,194.357458 L140.515189,190.886789 C138.451548,191.637204 136.294105,192.387619 134.230464,193.044232 C132.729635,193.513241 131.135003,193.98225 129.634173,194.45126 L132.635833,197.921929 L137.325926,198.48474 L127.851938,200.360777 L124.099863,196.045891 C120.9106,196.890108 117.815138,197.640523 114.625875,198.390938 C122.223826,200.173173 129.821777,201.955409 137.325926,204.112851 L136.669313,206.457898 C127.664334,203.831446 118.565553,201.767805 109.372971,199.610362 C100.180388,201.767805 91.0816079,203.737644 82.0766291,206.457898 L81.4200161,204.112851 C88.924165,201.861607 96.5221158,200.079371 104.120067,198.390938 C100.930803,197.640523 97.8353419,196.890108 94.6460786,196.045891 L90.8940041,200.360777 L81.4200161,198.48474 L86.1101092,197.921929 L89.1117688,194.45126 C87.610939,193.98225 86.0163073,193.513241 84.5154775,193.044232 C82.4518366,192.387619 80.2943937,191.731006 78.2307528,190.886789 L73.7282634,194.357458 L64.8170865,190.699185 L69.5071796,191.074393 L72.6026411,188.635544 C69.0381703,187.134714 65.6613033,185.352479 62.2844363,183.476442 L57.5005413,186.290498 L49.1521756,181.506603 L53.7484668,182.444621 L57.2191357,180.38098 C54.4050799,178.504943 51.591024,176.441302 49.0583737,174.283859 L43.8054695,176.441302 L36.3013205,170.437983 L40.710008,172.126416 L44.83729,170.437983 C42.8674509,168.468144 40.9914136,166.498305 39.2091783,164.340862 C38.3649615,163.402843 37.5207447,162.371023 36.7703298,161.339202 L30.3918032,161.995815 L24.8574934,154.210261 L28.6095679,157.024317 L33.1120572,156.649109 C30.6732088,153.272242 28.515766,149.801573 26.6397288,146.049499 L20.5426077,145.486688 L16.6029295,136.763115 L19.7921929,140.233783 L24.1070785,140.608991 C22.7000506,137.04452 21.5744282,133.480049 20.6364096,129.727975 L14.7268923,128.039541 L12.4756476,118.753157 L14.914496,122.786637 L19.4169854,124.099863 C18.9479761,121.192006 18.4789668,118.284148 18.1975612,115.37629 C18.1037593,114.34447 18.0099575,113.218847 17.9161556,112.187027 L12.2880439,109.279169 L11.9128365,99.7113791 L13.60127,104.120067 L17.7285519,106.183708 C17.7285519,102.150228 18.0099575,98.0229456 18.4789668,93.9894656 L13.8826756,90.4249948 L15.2897035,80.9510068 L16.0401184,85.547298 L19.4169854,88.1737501 C20.1674003,84.4216757 21.1054189,80.7634031 22.3248431,77.1989323 L18.2913631,72.6026411 L21.4806264,63.5976623 L21.3868245,68.2877554 L24.3884841,71.7584243 C25.6079083,68.7567647 27.0149362,65.9427089 28.515766,63.128653 L29.172379,61.9092288 L26.0769176,56.5625227 L30.9546144,48.3079589 L29.9227939,52.9042501 L32.2678405,56.9377301 C34.3314814,53.8422687 36.5827261,50.934411 39.0215745,48.1203551 L36.9579336,42.2108378 L43.3364602,34.9880945 L41.4604229,39.3029801 L43.0550546,43.7116676 C45.6815067,40.9914136 48.4955626,38.3649615 51.4972222,35.9261131 L50.5592035,29.6413883 L58.1571543,23.731871 L55.5307022,27.5777474 L56.2811171,32.1740386 C59.3765786,29.9227939 62.6596437,27.859153 66.0365107,25.9831157 L66.3179163,19.7921929 L74.9476876,15.4773072 L71.5708206,18.7603724 L71.3832169,23.2628617 C74.8538858,21.6682301 78.4183565,20.2612022 82.0766291,19.041778 L83.5774589,13.0384588 L92.8638432,10.4120067 L88.924165,13.0384588 L87.8923446,17.5409482 C93.3328525,16.2277221 98.8671624,15.5711091 104.495274,15.4773072 C96.2407103,15.8525147 88.0799483,17.4471463 80.2943937,20.355004 L83.5774589,22.9814562 L88.267552,22.7000506 L78.9811677,26.2645213 L74.8538858,22.5124468 C71.3832169,24.1070785 68.0063498,25.8893139 64.8170865,27.859153 L68.6629629,30.0165958 L73.2592541,28.8909734 L64.7232847,34.1438777 L59.9393897,31.1422181 C56.9377301,33.299661 54.0298724,35.5509056 51.3096184,38.0835559 L55.6245041,39.5843857 L59.9393897,37.7083485 L52.4352408,44.3682807 L46.9009309,42.117036 C44.2744788,44.7434881 41.8356304,47.6513458 39.5843857,50.5592035 L44.1806769,51.3096184 L48.1203551,48.6831663 L41.9294322,56.5625227 L36.1137168,55.3430985 C34.1438777,58.2509562 32.2678405,61.2526158 30.6732088,64.4418791 L35.4571038,64.3480772 L38.9277727,61.0650121 L34.2376796,69.8823871 L28.2343604,69.6947834 C26.5459269,73.2592541 25.2327008,77.0113286 24.0132766,80.7634031 L28.6095679,79.8253844 L31.4236237,76.07331 L28.2343604,85.3596943 L22.418645,86.203911 C21.6682301,89.4869762 21.1054189,92.7700414 20.7302115,96.0531065 L24.6698897,94.5522767 L26.7335306,90.331193 L25.4203046,100.180388 L20.2612022,101.868822 C20.0735984,105.8085 20.1674003,109.84198 20.6364096,113.781658 L24.2008804,111.624216 L25.5141064,107.121726 L25.9831157,117.064724 L21.3868245,119.503572 C21.9496357,123.161845 22.6062487,126.913919 23.5442673,130.47839 L26.5459269,127.570532 L26.8273325,122.880439 L29.4537846,132.448229 L25.138899,136.0127 C25.8893139,138.170143 26.6397288,140.233783 27.5777474,142.203623 C28.3281623,143.798254 29.0785772,145.299084 29.9227939,146.893716 L32.1740386,143.141641 L31.23602,138.54535 L36.3013205,147.175121 L33.0182554,151.959016 C35.3633019,155.617289 37.989754,159.087958 40.8038099,162.371023 L42.0232341,158.71275 L40.053395,154.491666 L46.9009309,161.808212 L44.83729,166.967314 C46.9009309,169.218559 49.1521756,171.2822 51.591024,173.158237 L52.5290426,168.561946 L50.0901942,164.528466 L57.688145,171.000794 L56.1873152,176.628906 C59.2827767,178.786349 62.47204,180.756188 65.848907,182.538423 L65.6613033,178.598745 L62.3782381,175.409482 L71.3832169,179.818169 L71.289415,185.352479 C74.4786783,186.853309 77.8555453,188.166535 81.2324124,189.385959 L80.3881956,185.821488 L76.5423193,183.195036 L86.203911,186.009092 L87.1419297,191.355798 C90.331193,192.293817 93.5204563,193.231835 96.7097196,194.076052 L95.7717009,190.230176 L91.9258246,187.603724 L101.587416,190.41778 L102.431633,195.670684 C104.77668,196.233495 107.215528,196.796306 109.560575,197.359117 C111.905621,196.796306 114.34447,196.233495 116.689516,195.670684 L117.533733,190.41778 L127.195325,187.603724 L123.349448,190.230176 L122.505232,194.076052 C125.694495,193.231835 128.883758,192.293817 132.073021,191.355798 L133.01104,186.009092 L142.672632,183.195036 L138.826756,185.821488 L137.982539,189.385959 C141.359406,188.166535 144.642471,186.853309 147.925536,185.352479 L147.831734,179.818169 L156.836713,175.409482 L153.459846,178.692547 L153.272242,182.632225 C156.649109,180.84999 159.838373,178.880151 162.933834,176.628906 L161.433004,171.000794 L169.030955,164.528466 L166.592107,168.561946 L167.530125,173.158237 C169.875172,171.188398 172.126416,169.124757 174.190057,166.967314 L172.126416,161.71441 L178.973952,154.491666 L177.004113,158.71275 L178.129736,162.371023 C180.943792,159.087958 183.570244,155.617289 186.009092,151.959016 L182.726027,147.175121 L187.791327,138.54535 L186.853309,143.141641 L189.104553,146.893716 C189.94877,145.392886 190.699185,143.798254 191.4496,142.203623 C192.387619,140.139982 193.138034,138.076341 193.888448,136.0127 L189.573563,132.354427 L192.200015,122.786637 L192.481421,127.47673 L195.48308,130.384588 C196.421099,126.726315 197.077712,123.068043 197.640523,119.40977 L193.044232,116.970922 L193.513241,107.027924 L194.826467,111.530414 L198.390938,113.687857 C198.766145,109.748178 198.859947,105.8085 198.672343,101.868822 L193.513241,100.180388 L192.200015,90.331193 L194.263656,94.5522767 L198.203334,96.0531065 C197.828127,92.7700414 197.265315,89.3931743 196.514901,86.203911 L190.699185,85.3596943 L187.697526,75.8857062 L190.511581,79.6377807 L195.107873,80.5757993 C193.98225,76.8237249 192.575222,73.0716504 190.886789,69.5071796 L184.789668,69.6947834 L180.099575,60.8774083 L183.476442,64.1604735 L188.260337,64.2542754 C186.571903,61.1588139 184.789668,58.1571543 182.819829,55.2492966 L177.004113,56.4687208 L170.81319,48.5893644 L174.752869,51.2158166 L179.34916,50.4654017 C177.097915,47.557544 174.565265,44.6496862 172.032615,42.0232341 L166.592107,44.1806769 L159.087958,37.5207447 L163.402843,39.396782 L167.717729,37.8959522 C164.997475,35.4571038 162.089617,33.1120572 159.087958,30.9546144 L154.304063,33.956274 L145.768093,28.7033697 L150.364385,29.8289921 L154.210261,27.6715492 C151.020998,25.7017101 147.644131,23.9194748 144.173462,22.3248431 L140.04618,26.0769176 L130.759795,22.418645 L135.449889,22.7000506 L138.639152,20.0735984 C130.853597,17.1657407 122.692835,15.4773072 114.438271,15.1959016 C120.066383,15.2897035 125.600693,15.9463165 131.041201,17.2595426 L130.009381,12.7570532 L126.069702,10.1306011 L135.356087,12.7570532 L136.763115,18.7603724 C140.421387,19.8859947 143.985858,21.2930226 147.456527,22.8876543 L147.268923,18.3851649 L143.892056,15.1020998 L152.521827,19.4169854 L152.803233,25.6079083 C156.1801,27.4839455 159.463165,29.5475865 162.558627,31.7988312 L163.309041,27.2025399 L160.682589,23.3566636 L168.28054,29.2661809 L167.342522,35.5509056 C170.250379,37.989754 173.064435,40.6162062 175.690887,43.3364602 L177.285519,38.9277727 L175.409482,34.612887 L181.788008,41.8356304 L179.724367,47.7451477 C182.163216,50.5592035 184.320659,53.5608631 186.384299,56.5625227 L188.729346,52.5290426 L187.697526,47.9327514 L192.575222,56.1873152 L189.479761,61.5340214 C189.667365,61.9092288 189.94877,62.2844363 190.136374,62.6596437 C191.637204,65.4736996 193.044232,68.3815573 194.263656,71.289415 L197.265315,67.8187461 L197.171514,63.128653 L200.360777,72.1336318 L196.327297,76.729923 C197.546721,80.2943937 198.48474,83.9526664 199.235155,87.7047408 L202.612022,85.0782887 L203.362436,80.4819975 L204.769464,89.9559855 L200.173173,93.5204563 C200.735984,97.5539363 201.01739,101.681218 201.01739,105.714698 L205.144672,103.651057 L206.833105,99.2423698 L206.457898,108.81016 L200.829786,111.718017 C200.735984,112.749838 200.642182,113.87546 200.548381,114.907281 C200.173173,117.815138 199.797966,120.722996 199.235155,123.630854 L203.831446,122.692835 Z"/>
    </g>
    <g fill="#002856" fill-rule="nonzero" transform="translate(19.698 11.256)">
      <path d="M2.53265027 175.784689C2.34504655 176.441302 2.25124468 177.097915 2.25124468 177.754528 2.25124468 178.411141 2.34504655 179.161556 2.62645213 179.818169 2.81405586 180.474782 3.1892633 181.037593 3.75207447 181.506603 4.22108378 181.788008 4.78389495 181.88181 5.25290426 181.694206 5.62811171 181.506603 6.00331916 181.225197 6.19092288 180.84999 6.37852661 180.38098 6.47232847 179.911971 6.28472474 179.442962 6.28472474 179.34916 6.28472474 179.255358 6.19092288 179.161556L6.09712102 178.880151C6.09712102 178.692547 6.00331916 178.504943 6.00331916 178.317339 6.00331916 178.129736 5.9095173 177.942132 5.9095173 177.754528 5.62811171 176.81651 5.72191357 175.784689 6.19092288 174.84667 6.65993219 174.002454 7.31654522 173.439643 8.16076198 173.158237 9.19258246 172.78303 10.2244029 172.78303 11.2562234 173.252039 12.2880439 173.81485 13.0384588 174.752869 13.3198644 175.878491 13.60127 176.628906 13.6950718 177.379321 13.6950718 178.223538 13.6950718 178.973952 13.60127 179.724367 13.4136662 180.474782L11.4438271 180.005773C11.537629 179.442962 11.6314309 178.880151 11.6314309 178.223538 11.6314309 177.660726 11.537629 177.097915 11.3500253 176.535104 11.1624216 175.972293 10.881016 175.503284 10.4120067 175.221878 9.94299736 174.940472 9.38018619 174.84667 8.81737501 175.128076 8.44216757 175.221878 8.16076198 175.503284 7.97315826 175.878491 7.78555453 176.3475 7.69175267 176.910311 7.8793564 177.473123 7.8793564 177.660726 7.97315826 177.84833 7.97315826 178.129736 7.97315826 178.411141 8.06696012 178.692547 8.16076198 178.973952 8.72357315 180.943792 7.69175267 183.007432 5.81571543 183.664046 4.78389495 184.133055 3.65827261 184.039253 2.72025399 183.476442 1.68843351 182.819829.938018619 181.788008.656613033 180.568584.375207447 179.724367.187603724 178.786349.187603724 177.84833.187603724 176.910311.375207447 176.066095.656613033 175.221878L2.53265027 175.784689zM11.1624216 195.389278C10.0367992 195.670684 8.91117688 195.576882 7.8793564 195.107873 6.94133778 194.638863 6.19092288 193.794647 5.72191357 192.856628 5.34670613 192.106213 5.1591024 191.168194 5.25290426 190.323978 5.34670613 189.573563 5.62811171 188.91695 6.00331916 188.260337 6.00331916 188.260337 6.09712102 188.166535 6.09712102 188.166535 6.09712102 188.166535 6.09712102 188.072733 6.19092288 188.072733L6.28472474 187.978931 6.37852661 187.885129C6.65993219 187.509922 7.03513964 187.228516 7.31654522 187.040913 7.78555453 186.759507 8.62977129 186.290498 9.84919549 185.727686 11.0686197 185.164875 12.0066383 184.789668 12.4756476 184.602064 12.8508551 184.41446 13.3198644 184.41446 13.6950718 184.41446L14.0702793 184.41446C14.0702793 184.41446 14.1640811 184.41446 14.1640811 184.41446L14.257883 184.41446C15.0082979 184.508262 15.6649109 184.789668 16.321524 185.164875 18.0099575 186.290498 18.8541742 188.44794 18.2913631 190.41778 18.0099575 191.4496 17.3533444 192.387619 16.4153258 193.044232L15.4773072 191.074393C15.8525147 190.699185 16.1339202 190.230176 16.321524 189.667365 16.5091277 189.104553 16.4153258 188.44794 16.1339202 187.978931 15.9463165 187.603724 15.6649109 187.228516 15.3835053 186.947111 15.1020998 186.759507 14.8206942 186.571903 14.4454867 186.478101L14.257883 186.478101 14.0702793 186.478101C13.6950718 186.478101 13.3198644 186.478101 12.9446569 186.571903 12.194242 186.853309 11.3500253 187.134714 10.6934123 187.509922 9.94299736 187.885129 9.19258246 188.260337 8.53596943 188.635544 8.25456384 188.823148 7.97315826 189.104553 7.69175267 189.479761 7.69175267 189.479761 7.59795081 189.573563 7.59795081 189.573563 7.59795081 189.667365 7.59795081 189.667365 7.50414895 189.667365 7.31654522 190.042572 7.22274336 190.323978 7.22274336 190.699185 7.22274336 191.168194 7.31654522 191.543402 7.50414895 191.918609 7.69175267 192.387619 8.06696012 192.762826 8.53596943 193.044232 9.0987806 193.325637 9.66159177 193.419439 10.2244029 193.419439L11.1624216 195.389278z"/>
      <polygon points="18.291 203.456 15.571 198.954 10.6 201.955 9.568 200.173 21.105 193.326 22.043 195.108 17.166 198.016 19.886 202.518 24.764 199.61 25.796 201.299 14.352 208.146 13.32 206.458"/>
      <path d="M24.6698897 206.457898C25.0450971 206.270294 25.4203046 206.08269 25.8893139 205.988889L26.0769176 205.988889 26.2645213 205.988889C26.2645213 205.988889 26.3583232 205.988889 26.3583232 205.988889L26.452125 205.988889C27.2025399 205.988889 27.9529548 206.08269 28.6095679 206.364096 30.2980014 207.020709 31.4236237 208.615341 31.6112274 210.397576 31.7050293 211.147991 31.6112274 211.898406 31.3298219 212.555019 31.3298219 212.555019 31.3298219 212.648821 31.3298219 212.648821 31.3298219 212.648821 31.3298219 212.742623 31.3298219 212.742623 31.3298219 212.742623 31.23602 212.836425 31.23602 212.836425L30.9546144 212.930226C30.7670107 213.305434 30.4856051 213.680641 30.2041995 213.962047 29.8289921 214.337254 29.0785772 214.900065 27.9529548 215.744282 27.2025399 216.307093 26.452125 216.869905 25.6079083 217.432716 25.2327008 217.620319 24.8574934 217.807923 24.3884841 217.901725L24.2008804 217.901725 24.0132766 217.901725 23.9194748 217.901725C23.9194748 217.901725 23.8256729 217.901725 23.8256729 217.901725 23.075258 217.901725 22.418645 217.807923 21.6682301 217.526518 20.0735984 216.776103 18.9479761 215.275273 18.7603724 213.586839 18.6665705 212.836425 18.7603724 212.08601 19.041778 211.429397 19.041778 211.429397 19.041778 211.335595 19.041778 211.335595 19.041778 211.335595 19.041778 211.241793 19.041778 211.241793 19.041778 211.147991 19.1355798 211.147991 19.1355798 211.054189 19.1355798 210.960387 19.1355798 210.960387 19.2293817 210.960387 19.4169854 210.58518 19.698391 210.209972 19.9797966 209.928567 20.355004 209.553359 21.1054189 208.990548 22.2310413 208.146331 23.3566636 207.302115 24.1070785 206.739304 24.6698897 206.457898M21.5744282 211.241793C21.2930226 211.523198 21.1054189 211.804604 20.9178152 212.179812 20.9178152 212.179812 20.9178152 212.273613 20.9178152 212.273613 20.9178152 212.273613 20.9178152 212.367415 20.9178152 212.367415 20.8240133 212.742623 20.8240133 213.11783 20.9178152 213.399236 21.0116171 213.774443 21.1992208 214.243452 21.3868245 214.524858 21.8558338 215.181471 22.6062487 215.556679 23.3566636 215.556679L23.6380692 215.556679C24.0132766 215.556679 24.3884841 215.369075 24.7636915 215.181471 25.5141064 214.806264 26.1707195 214.337254 26.8273325 213.774443 27.4839455 213.305434 28.1405586 212.742623 28.7033697 212.179812 28.9847753 211.898406 29.172379 211.617 29.3599828 211.241793 29.3599828 211.147991 29.3599828 211.147991 29.3599828 211.147991 29.3599828 211.147991 29.3599828 211.054189 29.3599828 211.054189 29.4537846 210.678982 29.4537846 210.303774 29.4537846 210.022369 29.3599828 209.553359 29.2661809 209.178152 28.9847753 208.896746 28.7033697 208.521539 28.4219641 208.240133 28.0467567 208.05253 27.6715492 207.864926 27.3901437 207.771124 27.0149362 207.771124L26.7335306 207.771124C26.3583232 207.771124 25.9831157 207.958728 25.6079083 208.146331 24.8574934 208.521539 24.2008804 208.990548 23.5442673 209.553359 22.7938524 210.209972 22.1372394 210.678982 21.5744282 211.241793M32.3616423 216.494697C32.7368498 216.213292 33.1120572 216.025688 33.4872647 215.931886L33.6748684 215.931886 33.7686703 215.931886C33.7686703 215.931886 33.8624721 215.931886 33.8624721 215.931886L33.956274 215.931886C34.7066889 215.838084 35.4571038 215.838084 36.1137168 216.025688 36.9579336 216.307093 37.7083485 216.776103 38.2711596 217.432716 38.9277727 218.089329 39.3029801 218.839744 39.4905838 219.777762 39.5843857 220.528177 39.5843857 221.278592 39.396782 221.935205 39.396782 221.935205 39.396782 222.029007 39.396782 222.029007 39.396782 222.029007 39.396782 222.122809 39.396782 222.122809 39.396782 222.216611 39.396782 222.216611 39.396782 222.310413L39.3029801 222.498016C39.1153764 222.873224 38.9277727 223.248431 38.6463671 223.529837 38.3649615 223.905044 37.6145466 224.561657 36.5827261 225.499676 35.9261131 226.156289 35.1756982 226.812902 34.4252833 227.375713 34.0500759 227.657119 33.6748684 227.844722 33.299661 227.938524L33.1120572 227.938524 32.9244535 227.938524 32.8306516 227.938524C32.8306516 227.938524 32.7368498 227.938524 32.7368498 227.938524 31.9864349 228.032326 31.3298219 228.032326 30.579407 227.844722 28.8909734 227.281911 27.5777474 225.968685 27.2025399 224.18645 27.1087381 223.436035 27.1087381 222.779422 27.2963418 222.029007 27.2963418 222.029007 27.2963418 221.935205 27.2963418 221.935205 27.2963418 221.935205 27.2963418 221.841403 27.2963418 221.841403L27.3901437 221.6538C27.3901437 221.559998 27.3901437 221.559998 27.3901437 221.466196 27.5777474 221.090988 27.859153 220.715781 28.1405586 220.434375 28.4219641 220.059168 29.172379 219.402555 30.2041995 218.464536 30.8608125 217.807923 31.6112274 217.15131 32.3616423 216.494697M29.8289921 221.6538C29.5475865 221.935205 29.3599828 222.310413 29.2661809 222.68562L29.2661809 222.779422C29.2661809 222.779422 29.2661809 222.873224 29.2661809 222.873224 29.2661809 223.248431 29.2661809 223.623639 29.3599828 223.905044 29.6413883 224.749261 30.2041995 225.405874 30.9546144 225.68728 31.3298219 225.781081 31.6112274 225.874883 31.9864349 225.874883L32.1740386 225.874883 32.3616423 225.874883C32.7368498 225.781081 33.1120572 225.68728 33.3934628 225.405874 34.0500759 224.936865 34.7066889 224.374054 35.2695001 223.811242 35.9261131 223.248431 36.4889243 222.68562 37.0517354 222.029007 37.333141 221.747601 37.5207447 221.372394 37.6145466 220.997187L37.6145466 220.903385C37.6145466 220.903385 37.6145466 220.809583 37.6145466 220.809583 37.7083485 220.059168 37.5207447 219.214951 36.9579336 218.65214 36.676528 218.370734 36.3013205 218.089329 35.9261131 217.901725 35.5509056 217.807923 35.1756982 217.714121 34.8942926 217.714121L34.7066889 217.714121 34.5190852 217.714121C34.1438777 217.807923 33.7686703 217.901725 33.4872647 218.183131 32.8306516 218.65214 32.1740386 219.214951 31.6112274 219.777762 30.9546144 220.434375 30.2980014 220.997187 29.8289921 221.6538"/>
      <polygon points="43.899 223.155 45.4 224.468 37.708 233.004 42.492 237.319 41.273 238.82 34.894 233.098"/>
      <path d="M54.4988817,237.037305 C54.7802873,236.755899 55.0616929,236.474494 55.4369004,236.193088 L55.6245041,236.099286 L55.8121078,236.005484 C55.8121078,236.005484 55.9059097,236.005484 55.9059097,235.911683 C55.9059097,235.911683 55.9997115,235.911683 55.9997115,235.817881 C56.6563246,235.536475 57.4067395,235.442673 58.1571543,235.442673 C59.0013711,235.442673 59.9393897,235.724079 60.5960028,236.28689 C61.3464177,236.755899 61.9092288,237.412512 62.2844363,238.256729 C62.5658419,238.913342 62.7534456,239.663757 62.7534456,240.414172 C62.7534456,240.414172 62.7534456,240.507974 62.7534456,240.507974 C62.7534456,240.507974 62.7534456,240.601776 62.7534456,240.601776 C62.7534456,240.695578 62.7534456,240.695578 62.7534456,240.789379 C62.7534456,240.883181 62.7534456,240.883181 62.7534456,240.976983 C62.6596437,241.445992 62.5658419,241.8212 62.3782381,242.196407 C62.1906344,242.665417 61.6278232,243.509633 60.8774083,244.635256 C60.1269934,245.760878 59.4703804,246.605095 59.1889748,246.980302 C58.9075692,247.35551 58.6261637,247.636915 58.2509562,247.824519 L58.0633525,247.918321 L57.8757488,248.012123 L57.7819469,248.105925 C57.7819469,248.105925 57.688145,248.105925 57.688145,248.199726 C57.031532,248.481132 56.2811171,248.574934 55.5307022,248.574934 C54.5926836,248.574934 53.7484668,248.293528 52.9980519,247.730717 C52.2476371,247.261708 51.6848259,246.605095 51.3096184,245.760878 C51.0282128,245.104265 50.8406091,244.35385 50.8406091,243.697237 C50.8406091,243.697237 50.8406091,243.603435 50.8406091,243.603435 C50.8406091,243.603435 50.8406091,243.509633 50.8406091,243.509633 C50.8406091,243.415832 50.8406091,243.415832 50.8406091,243.32203 C50.8406091,243.228228 50.8406091,243.228228 50.8406091,243.134426 C50.934411,242.665417 51.0282128,242.290209 51.2158166,241.915002 C51.4034203,241.445992 51.9662315,240.601776 52.7166464,239.476153 C53.4670613,238.350531 54.1236743,237.412512 54.4988817,237.037305 M53.1856557,242.665417 C52.9980519,243.040624 52.9042501,243.415832 52.9042501,243.791039 C52.9042501,243.791039 52.9042501,243.884841 52.9042501,243.884841 C52.9042501,243.884841 52.9042501,243.978643 52.9042501,243.978643 C52.9042501,244.35385 53.0918538,244.729058 53.1856557,245.010463 C53.3732594,245.385671 53.654665,245.760878 54.0298724,245.948482 C54.4050799,246.229887 54.7802873,246.323689 55.2492966,246.417491 C55.6245041,246.417491 55.9997115,246.417491 56.2811171,246.323689 L56.374919,246.323689 L56.4687208,246.323689 C56.8439283,246.136085 57.1253339,245.948482 57.4067395,245.667076 C57.9695506,245.010463 58.4385599,244.35385 58.9075692,243.697237 C59.3765786,243.040624 59.8455879,242.290209 60.2207953,241.539794 C60.408399,241.164587 60.5022009,240.789379 60.5022009,240.414172 L60.5022009,240.132766 C60.5022009,240.132766 60.5022009,240.038964 60.5022009,240.038964 C60.5022009,239.663757 60.408399,239.28855 60.2207953,239.007144 C59.751786,238.256729 59.0013711,237.78772 58.1571543,237.600116 C57.7819469,237.600116 57.4067395,237.600116 57.1253339,237.693918 L57.031532,237.693918 L56.9377301,237.693918 C56.5625227,237.881522 56.2811171,238.069125 55.9997115,238.350531 C55.4369004,239.007144 54.967891,239.663757 54.4988817,240.32037 C53.9360706,241.164587 53.5608631,241.8212 53.1856557,242.665417"/>
      <polygon points="67.256 240.789 74.76 244.823 73.822 246.511 68.194 243.416 66.318 246.887 71.102 249.513 70.258 251.108 65.474 248.481 62.753 253.453 60.971 252.515"/>
      <path d="M84.2340719,255.234866 L88.6427594,256.829498 L87.7047408,259.362148 C86.8605241,261.800996 84.1402701,263.114222 81.7014217,262.176204 C81.7014217,262.176204 81.6076198,262.176204 81.6076198,262.176204 C80.7634031,261.894798 80.0129882,261.331987 79.450177,260.675374 C78.9811677,260.112563 78.6997621,259.45595 78.5121584,258.705535 C78.5121584,258.705535 78.5121584,258.611733 78.5121584,258.611733 C78.5121584,258.611733 78.5121584,258.517931 78.5121584,258.517931 L78.5121584,258.330328 C78.5121584,258.330328 78.5121584,258.236526 78.5121584,258.142724 C78.5121584,257.673715 78.5121584,257.298507 78.6059602,256.829498 C78.6997621,256.360488 78.9811677,255.42247 79.5439788,254.109244 C79.8253844,253.171225 80.2005919,252.327008 80.6696012,251.482792 C80.8572049,251.107584 81.1386105,250.732377 81.4200161,250.450971 L81.5138179,250.357169 L81.6076198,250.263367 C81.6076198,250.263367 81.7014217,250.169566 81.7014217,250.169566 C81.7014217,250.169566 81.7952235,250.169566 81.7952235,250.075764 C82.3580347,249.606754 83.0146477,249.325349 83.7650626,249.137745 C84.6092794,248.950141 85.4534961,249.043943 86.203911,249.325349 C87.3295334,249.700556 88.1737501,250.450971 88.7365613,251.482792 C89.2055706,252.42081 89.3931743,253.546433 89.2055706,254.672055 L87.2357315,253.92164 C87.2357315,253.358829 87.1419297,252.796018 86.8605241,252.327008 C86.5791185,251.764197 86.1101092,251.38899 85.547298,251.201386 C85.1720906,251.013782 84.7030813,251.013782 84.3278738,251.107584 C83.9526664,251.201386 83.6712608,251.295188 83.2960533,251.482792 C83.2960533,251.482792 83.2022515,251.576593 83.2022515,251.576593 C83.2022515,251.576593 83.1084496,251.576593 83.1084496,251.670395 C82.827044,251.951801 82.5456384,252.233207 82.3580347,252.514612 C81.9828273,253.265027 81.7014217,254.015442 81.4200161,254.765857 C81.1386105,255.516272 80.8572049,256.360488 80.6696012,257.110903 C80.5757993,257.486111 80.5757993,257.861318 80.6696012,258.236526 C80.6696012,258.236526 80.6696012,258.330328 80.6696012,258.330328 C80.6696012,258.330328 80.6696012,258.424129 80.6696012,258.424129 C80.7634031,258.799337 80.9510068,259.080742 81.2324124,259.362148 C81.5138179,259.643554 81.8890254,259.924959 82.2642328,260.018761 C82.9208459,260.300167 83.6712608,260.300167 84.3278738,259.924959 C84.9844868,259.549752 85.547298,258.986941 85.7349017,258.236526 L85.9225055,257.579913 L83.3898552,256.641894 L84.2340719,255.234866 Z"/>
      <polygon points="93.896 252.139 95.866 252.702 92.958 263.771 99.242 265.365 98.773 267.242 90.519 265.084"/>
      <path d="M103.932463 258.611733C104.026265 258.236526 104.213869 257.767516 104.495274 257.486111L104.589076 257.392309 104.682878 257.298507C104.682878 257.298507 104.682878 257.204705 104.77668 257.204705 104.77668 257.204705 104.870482 257.110903 104.870482 257.110903 105.339491 256.548092 105.996104 256.172885 106.652717 255.891479 108.34115 255.234866 110.217188 255.516272 111.624216 256.641894 112.187027 257.110903 112.656036 257.673715 112.937442 258.424129 112.937442 258.424129 112.937442 258.517931 112.937442 258.517931 112.937442 258.517931 112.937442 258.611733 113.031244 258.611733 113.031244 258.705535 113.031244 258.705535 113.031244 258.799337L113.125045 258.893139C113.218847 259.268346 113.312649 259.737355 113.218847 260.206365 113.218847 260.675374 113.125045 261.613393 112.84364 263.020421 112.749838 263.958439 112.562234 264.896458 112.280829 265.834476 112.187027 266.209684 111.999423 266.678693 111.718017 267.053901L111.624216 267.147703C111.624216 267.147703 111.530414 267.241504 111.530414 267.241504L111.436612 267.335306C111.436612 267.335306 111.34281 267.429108 111.34281 267.429108 110.873801 267.991919 110.217188 268.367127 109.560575 268.648532 107.872141 269.305145 105.996104 269.02374 104.589076 267.898117 104.026265 267.429108 103.557255 266.866297 103.27585 266.209684 103.27585 266.209684 103.27585 266.115882 103.27585 266.115882 103.27585 266.115882 103.27585 266.02208 103.27585 266.02208L103.182048 265.834476C103.182048 265.740675 103.182048 265.740675 103.182048 265.646873 103.088246 265.271665 102.994444 264.802656 103.088246 264.333647 103.088246 263.864637 103.182048 262.832817 103.463454 261.519591 103.744859 260.206365 103.838661 259.080742 103.932463 258.611733M105.151887 264.239845C105.151887 264.615052 105.245689 264.99026 105.339491 265.365467 105.339491 265.365467 105.339491 265.459269 105.433293 265.459269 105.527095 265.459269 105.527095 265.553071 105.527095 265.553071 105.714698 265.834476 105.996104 266.115882 106.277509 266.397288 106.652717 266.678693 107.027924 266.866297 107.403132 266.866297 108.153547 267.053901 108.997763 266.772495 109.560575 266.209684L109.654377 266.115882 109.748178 266.02208C110.029584 265.740675 110.217188 265.365467 110.31099 264.99026 110.498593 264.146043 110.686197 263.395628 110.779999 262.551411 110.967603 261.707195 111.061404 260.95678 111.061404 260.112563 111.061404 259.737355 110.967603 259.362148 110.873801 258.986941 110.873801 258.986941 110.873801 258.893139 110.779999 258.893139L110.686197 258.799337C110.498593 258.517931 110.31099 258.236526 109.935782 257.95512 109.560575 257.673715 109.185367 257.486111 108.81016 257.486111 108.434952 257.392309 107.965943 257.392309 107.590736 257.579913 107.215528 257.673715 106.934123 257.861318 106.652717 258.142724L106.558915 258.236526 106.465113 258.330328C106.183708 258.611733 105.996104 258.986941 105.902302 259.362148 105.714698 260.112563 105.527095 260.95678 105.433293 261.800996 105.245689 262.551411 105.151887 263.395628 105.151887 264.239845M117.064724 256.548092L122.223826 256.829498C123.255646 256.829498 124.381269 257.204705 125.131684 257.95512 125.788297 258.705535 126.069702 259.643554 125.9759 260.581572 125.9759 261.144383 125.788297 261.707195 125.506891 262.176204 125.131684 262.739015 124.568873 263.208024 123.91226 263.395628L123.91226 263.395628C124.568873 263.583232 125.131684 263.958439 125.413089 264.615052 125.694495 265.177863 125.882099 265.834476 125.882099 266.49109 125.882099 266.49109 125.882099 266.49109 125.882099 266.584891L125.882099 266.678693C125.882099 267.710514 125.413089 268.742334 124.662674 269.398947 123.91226 270.05556 122.974241 270.336966 122.036222 270.336966L116.408111 270.05556 117.064724 256.548092zM118.659355 264.052241L118.471752 268.085721 121.567213 268.273325C122.223826 268.367127 122.786637 268.179523 123.255646 267.710514 124.006061 266.960099 124.099863 265.740675 123.349448 264.896458 122.974241 264.427449 122.317628 264.146043 121.754817 264.239845L118.659355 264.052241zM119.034563 258.424129L118.846959 262.270006 121.754817 262.457609C122.317628 262.551411 122.974241 262.363808 123.44325 261.9886 123.818458 261.613393 124.006061 261.144383 124.006061 260.675374 124.006061 260.206365 123.91226 259.643554 123.537052 259.268346 123.161845 258.799337 122.505232 258.611733 121.94242 258.611733L119.034563 258.424129zM136.763115 267.147703L131.697814 267.335306 130.853597 270.336966 128.696154 270.430768 132.917238 256.829498 134.605672 256.735696 140.04618 269.867957 137.888737 269.961758 136.763115 267.147703zM136.0127 265.365467L133.855257 259.643554 133.855257 259.643554 132.166823 265.553071 136.0127 265.365467z"/>
      <polygon points="141.735 256.267 143.704 255.985 145.393 267.335 151.771 266.397 152.053 268.273 143.611 269.493"/>
      <polygon points="158.431 253.265 160.214 252.702 166.405 259.925 167.436 250.545 169.219 249.982 173.158 262.739 171.282 263.302 168.843 255.329 168.75 255.329 167.999 262.364 166.405 262.833 161.808 257.486 161.808 257.486 164.247 265.459 162.371 266.116"/>
      <path d="M183.101234,255.328668 L178.504943,257.298507 L178.786349,260.48777 L176.81651,261.331987 L175.878491,247.167906 L177.379321,246.511293 L187.134714,256.829498 L185.164875,257.673715 L183.101234,255.328668 Z M181.788008,253.92164 L177.660726,249.325349 L177.660726,249.325349 L178.223538,255.42247 L181.788008,253.92164 Z"/>
      <polygon points="183.852 243.51 185.54 242.572 195.483 247.825 195.483 247.825 190.793 239.57 192.481 238.538 199.141 250.17 197.547 251.108 187.51 245.855 187.51 245.855 192.2 254.109 190.512 255.141"/>
      <path d="M207.208313 240.976983L203.081031 243.884841 204.01905 246.8865 202.330616 248.105925 198.390938 234.410853 199.797966 233.472834 211.523198 241.445992 209.834765 242.665417 207.208313 240.976983zM205.707483 239.851361L200.735984 236.193088 200.735984 236.193088 202.612022 242.008804 205.707483 239.851361zM208.896746 230.471175C208.990548 230.846382 209.08435 231.221589 209.365756 231.502995 209.834765 232.159608 210.397576 232.816221 210.960387 233.379032 211.523198 234.035645 212.08601 234.598456 212.648821 235.161268 212.930226 235.442673 213.305434 235.630277 213.680641 235.724079L213.774443 235.724079C213.774443 235.724079 213.868245 235.724079 213.868245 235.724079 214.243452 235.817881 214.61866 235.817881 214.900065 235.724079 215.275273 235.630277 215.65048 235.442673 216.025688 235.161268 216.588499 234.692258 216.963706 234.035645 216.963706 233.28523 216.963706 232.534816 216.682301 231.784401 216.213292 231.221589L215.744282 230.658778 213.680641 232.441014 212.367415 230.940184 215.931886 227.844722 217.714121 229.908363C219.402555 231.878202 219.308753 234.78606 217.338914 236.568296 217.338914 236.568296 217.245112 236.568296 217.245112 236.662097 216.588499 237.224909 215.838084 237.693918 214.900065 237.78772 214.149651 237.881522 213.493038 237.881522 212.742623 237.693918 212.742623 237.693918 212.648821 237.693918 212.648821 237.693918L212.555019 237.693918 212.367415 237.600116 212.179812 237.506314C211.804604 237.31871 211.429397 237.131107 211.147991 236.755899 209.834765 235.442673 208.521539 233.941843 207.302115 232.441014 207.020709 232.065806 206.833105 231.690599 206.739304 231.315391 206.739304 231.221589 206.739304 231.221589 206.739304 231.127788 206.739304 231.127788 206.739304 231.033986 206.645502 230.940184 206.645502 230.940184 206.645502 230.846382 206.645502 230.846382 206.645502 230.846382 206.645502 230.75258 206.645502 230.75258 206.5517 230.002165 206.645502 229.25175 206.833105 228.595137 207.114511 227.750921 207.58352 227.000506 208.240133 226.437695 209.08435 225.68728 210.209972 225.21827 211.335595 225.21827 212.461217 225.21827 213.493038 225.593478 214.337254 226.250091L212.742623 227.657119C212.273613 227.375713 211.710802 227.281911 211.147991 227.281911 210.58518 227.281911 210.022369 227.469515 209.553359 227.938524 209.271954 228.21993 208.990548 228.595137 208.802944 228.970345 208.709143 229.345552 208.615341 229.72076 208.615341 230.002165"/>
      <polygon points="214.337 221.091 220.153 214.9 221.56 216.213 217.151 220.903 219.872 223.53 223.717 219.496 225.031 220.716 221.185 224.749 224.093 227.376 228.501 222.686 229.908 223.999 224.093 230.19"/>
      <polygon points="221.935 212.743 223.155 211.242 232.347 213.399 227.657 205.238 228.783 203.644 239.476 211.711 238.257 213.305 231.597 208.334 231.597 208.334 235.067 214.431 234.036 215.744 227.188 214.15 227.188 214.15 233.848 219.215 232.629 220.81"/>
      <polygon points="230.753 200.548 235.067 193.232 236.756 194.264 233.473 199.798 236.756 201.768 239.57 196.984 241.071 197.922 238.257 202.706 241.634 204.676 244.917 199.141 246.605 200.079 242.29 207.396"/>
      <polygon points="236.474 190.793 237.225 189.011 248.387 187.604 248.387 187.51 239.758 183.57 240.602 181.694 252.796 187.322 251.952 189.105 240.789 190.512 240.789 190.605 249.419 194.545 248.575 196.421"/>
      <polygon points="244.448 176.629 243.228 180.1 241.54 179.537 244.635 170.719 246.324 171.282 245.104 174.753 255.985 178.599 255.329 180.475"/>
      <path d="M11.1624216 65.4736996C11.4438271 65.192294 11.7252327 64.9108884 11.9128365 64.6294828L12.2880439 63.9728698 17.9161556 54.5926836C18.1975612 54.2174761 18.3851649 53.7484668 18.4789668 53.3732594L18.4789668 53.2794575 21.0116171 55.9059097 21.0116171 55.9997115C19.8859947 55.8121078 19.2293817 56.7501264 18.6665705 57.5943432L17.2595426 59.8455879 28.7033697 66.7869256C30.1103977 67.6311424 31.1422181 68.2877554 32.6430479 67.4435387L32.8306516 67.4435387 29.8289921 72.4150373 29.7351902 72.4150373C30.0165958 70.8204057 28.0467567 69.8823871 26.9211344 69.225774L15.6649109 62.47204 14.3516849 64.7232847C13.60127 65.7551052 13.3198644 67.0683312 13.60127 68.2877554L13.60127 68.3815573 11.1624216 65.4736996 11.1624216 65.4736996zM30.2980014 40.6162062L30.2980014 40.6162062C29.6413883 42.117036 31.3298219 43.5240639 32.2678405 44.5558844L34.7066889 47.1823365 42.3984416 39.8657913 39.8657913 37.2393392C38.9277727 36.3013205 37.6145466 34.5190852 36.1137168 35.1756982L36.019915 35.0818963 40.053395 31.23602 40.1471969 31.3298219C39.396782 32.7368498 41.0852155 34.2376796 41.9294322 35.1756982L49.6211849 43.2426583C50.5592035 44.1806769 51.8724296 45.8691104 53.3732594 45.3062993L53.4670613 45.4001011 49.4335812 49.2459775 49.3397793 49.1521756C50.0901942 47.7451477 48.4017607 46.3381198 47.557544 45.3062993L43.8992713 41.4604229 36.2075187 48.7769682 39.8657913 52.6228445C40.8038099 53.5608631 42.117036 55.2492966 43.6178658 54.6864855L43.7116676 54.7802873 39.6781876 58.6261637 39.5843857 58.5323618C40.2409987 57.1253339 38.6463671 55.7183059 37.7083485 54.6864855L30.0165958 46.5257235C29.0785772 45.5877049 27.7653511 43.8992713 26.2645213 44.4620825L26.2645213 44.3682807 30.2980014 40.6162062zM238.631937 56.8439283L234.78606 50.7468073 234.692258 50.8406091C235.161268 52.3414389 233.191429 53.2794575 232.065806 54.0298724L222.68562 59.9393897C221.18479 60.8774083 220.15297 61.815427 218.464536 61.0650121L218.370734 61.1588139 222.122809 67.0683312C225.68728 72.6026411 231.502995 74.1972727 236.380692 71.1018113 241.258389 68.0063498 242.102605 62.47204 238.631937 56.8439283M234.317051 68.4753592C230.002165 71.1956131 225.968685 69.1319722 223.623639 65.4736996 223.248431 64.9108884 222.967026 64.2542754 222.68562 63.5976623L234.973664 55.8121078C235.630277 56.4687208 236.193088 57.1253339 236.662097 57.8757488 239.28855 61.815427 238.631937 65.6613033 234.317051 68.4753592M213.586839 36.4889243C214.524858 35.5509056 216.11949 34.0500759 215.369075 32.6430479L215.462877 32.5492461 220.528177 37.333141C223.436035 40.053395 223.529837 42.9612527 221.747601 44.9310918 219.965366 46.9009309 216.963706 46.8071291 214.806264 45.493903L214.243452 52.2476371C214.149651 54.311278 214.337254 56.4687208 214.900065 58.5323618L212.930226 56.6563246C211.898406 55.8121078 211.335595 54.5926836 211.429397 53.2794575L211.804604 47.557544 212.648821 42.6798471C214.61866 43.9930732 217.338914 45.1186956 219.214951 43.0550546 220.434375 41.6480267 220.340573 39.4905838 218.933546 38.2711596 218.839744 38.1773578 218.745942 38.0835559 218.65214 38.0835559 218.183131 37.6145466 217.620319 37.2393392 217.057508 36.8641317L208.240133 46.6195253C207.302115 47.557544 205.707483 49.0583737 206.457898 50.4654017L206.364096 50.5592035 202.236814 46.7133272 202.330616 46.6195253C203.831446 47.2761384 205.144672 45.493903 205.988889 44.5558844L213.586839 36.4889243zM191.918609 39.2091783C193.419439 39.5843857 194.545061 37.7083485 195.295476 36.5827261L201.580201 27.4839455C202.330616 26.3583232 203.737644 24.7636915 202.799625 23.4504655L202.893427 23.3566636 207.489718 26.5459269 207.395917 26.6397288C205.895087 26.2645213 204.769464 28.1405586 204.01905 29.2661809L197.734325 38.3649615C196.98391 39.4905838 195.670684 41.0852155 196.514901 42.3984416L196.421099 42.4922434 191.918609 39.2091783 191.918609 39.2091783zM186.478101 14.6330904L180.193377 11.537629 180.193377 11.6314309C181.318999 12.7570532 180.193377 14.6330904 179.630565 15.8525147L174.752869 25.795512C174.190057 27.0149362 173.345841 28.9847753 171.845011 28.8909734L171.845011 28.9847753 176.159897 31.1422181C178.129736 32.0802368 180.193377 33.2058591 182.444621 33.2058591 184.695866 33.299661 186.759507 32.0802368 187.885129 30.1103977 189.198355 27.4839455 187.978931 24.9512953 185.91529 23.3566636 187.791327 23.4504655 189.385959 22.9814562 190.230176 21.1992208 191.355798 18.8541742 190.042572 16.321524 186.478101 14.6330904M184.789668 28.8909734C183.570244 31.4236237 180.84999 31.3298219 178.786349 30.0165958L176.628906 28.7033697 179.818169 22.1372394 181.694206 22.9814562C184.133055 23.9194748 186.009092 26.2645213 184.789668 28.8909734M187.040913 20.0735984C186.009092 22.2310413 183.195036 21.6682301 181.506603 20.8240133L180.662386 20.355004 183.195036 15.1959016 185.071073 15.8525147C186.759507 16.5091277 187.978931 18.2913631 187.040913 20.0735984M53.7484668 21.3868245L53.7484668 21.3868245C52.8104482 22.7000506 54.1236743 24.4822859 54.7802873 25.5141064L59.095173 32.1740386C61.1588139 35.4571038 63.5976623 36.1137168 66.1303126 34.5190852 67.5373405 33.6748684 68.4753592 32.1740386 68.6629629 30.4856051 68.6629629 29.5475865 68.3815573 28.6095679 67.7249443 27.859153L63.0348512 20.355004C62.2844363 19.2293817 61.3464177 17.3533444 59.751786 17.63475L59.751786 17.5409482 64.4418791 14.5392886 64.535681 14.6330904C63.5976623 15.9463165 64.8170865 17.63475 65.5675014 18.7603724L71.4770187 28.1405586C72.2274336 29.2661809 73.1654522 31.1422181 74.7600839 30.8608125L74.7600839 30.9546144 71.1018113 33.299661 70.0699908 31.6112274C69.8823871 33.7686703 68.1939536 35.6447075 66.5055201 36.7703298 64.8170865 37.8959522 62.8472474 38.2711596 60.8774083 37.8959522 58.6261637 37.2393392 57.688145 35.5509056 56.4687208 33.7686703L52.2476371 27.2025399C51.4972222 26.0769176 50.5592035 24.1070785 48.9645719 24.4822859L48.9645719 24.3884841 53.7484668 21.3868245zM80.4819975 8.53596943L80.4819975 8.53596943C80.6696012 8.72357315 80.8572049 8.91117688 81.1386105 9.0987806L81.7014217 9.47398805 96.6159177 18.2913631 92.5824376 7.8793564C92.0196265 6.37852661 91.5506172 5.25290426 89.7683818 4.97149868L89.7683818 4.87769682 94.5522767 3.00165958 94.5522767 3.09546144C93.4266544 4.50248937 93.8956637 5.53430985 94.4584749 7.1289415L100.461794 22.5124468C98.5857568 22.6062487 96.7097196 22.0434375 95.2088898 20.9178152L81.1386105 12.6632513 85.2658924 23.2628617C85.8287036 24.7636915 86.2977129 25.8893139 88.0799483 26.1707195L88.0799483 26.2645213 83.2960533 28.1405586 83.2960533 28.0467567C84.4216757 26.6397288 83.9526664 25.5141064 83.3898552 24.0132766L79.2625733 13.1322607C78.6997621 11.6314309 78.2307528 10.5058085 76.4485174 10.2244029L76.4485174 10.1306011 80.4819975 8.53596943zM125.413089 9.28638432C124.850278 3.47066889 120.347789.281405586 113.594055.938018619L106.465113 1.68843351 106.465113 1.78223538C107.965943 2.06364096 107.965943 4.22108378 108.153547 5.53430985L109.279169 16.6029295C109.466773 18.2913631 109.748178 19.698391 108.434952 20.8240133L108.434952 20.9178152 115.470092 20.1674003C121.94242 19.5107873 125.9759 15.0082979 125.413089 9.28638432M114.625875 18.1037593C113.87546 18.1975612 113.218847 18.1975612 112.468432 18.1037593L110.967603 3.56447075C111.811819 3.28306516 112.656036 3.09546144 113.594055 3.00165958 118.471752 2.53265027 121.661015 4.78389495 122.130024 9.94299736 122.599033 15.1020998 118.940761 17.63475 114.625875 18.1037593M131.51021 20.2612022C133.01104 19.7921929 133.01104 17.63475 133.104842 16.321524L133.855257 5.25290426C133.949059 3.9396782 134.230464 1.78223538 132.823436 1.12562234L132.823436 1.03182048 142.203623 1.68843351C142.672632 1.78223538 143.141641 1.78223538 143.61065 1.59463165L143.704452 1.59463165 143.516849 5.06530054 143.423047 5.06530054C142.57883 3.9396782 141.359406 3.75207447 140.04618 3.65827261 139.014359 3.56447075 138.076341 3.56447075 137.04452 3.65827261L136.669313 9.0987806 140.139982 9.28638432C140.608991 9.38018619 140.984198 9.28638432 141.453208 9.19258246L141.54701 9.19258246 141.359406 12.2880439 141.265604 12.2880439C140.890396 11.4438271 139.57717 11.3500253 138.732954 11.2562234L136.575511 11.1624216 136.106502 18.1037593 139.764774 18.6665705C141.734613 18.9479761 143.704452 18.4789668 145.299084 17.2595426L145.392886 17.2595426 143.798254 21.0116171 131.604012 20.1674003 131.51021 20.2612022zM155.804893 7.69175267C156.1801 6.37852661 156.836713 4.40868751 155.617289 3.47066889L155.617289 3.37686703 162.371023 5.1591024C166.216899 6.19092288 167.717729 8.72357315 167.061116 11.2562234 166.404503 13.7888737 163.684249 15.1959016 161.245401 15.1020998L163.965655 21.2930226C164.903673 23.1690599 166.123097 24.9512953 167.530125 26.452125L164.903673 25.795512C163.590447 25.6079083 162.464825 24.7636915 161.995815 23.5442673L159.650769 18.3851649 158.056137 13.6950718C160.401184 13.9764774 163.309041 13.60127 164.059456 10.881016 164.528466 9.0987806 163.402843 7.22274336 161.526806 6.84753592 161.433004 6.84753592 161.339202 6.84753592 161.245401 6.75373405 160.588787 6.56613033 159.932174 6.47232847 159.275561 6.47232847L155.898694 19.2293817C155.523487 20.5426077 154.866874 22.6062487 156.1801 23.4504655L156.1801 23.5442673 150.739592 22.1372394 150.739592 22.0434375C152.334224 21.9496357 152.709431 19.7921929 152.990837 18.4789668L155.804893 7.69175267z"/>
    </g>
    <g fill="#002856" fill-rule="nonzero" transform="translate(90.05 93.802)">
      <path d="M70.8204057,21.3868245 C69.6947834,20.8240133 68.4753592,20.2612022 67.1621331,19.7921929 L67.1621331,14.8206942 L70.632802,9.84919549 L70.632802,7.41034709 L79.5439788,0.281405586 L57.2191357,0.281405586 L57.1253339,7.1289415 L57.688145,17.2595426 L57.3129376,20.9178152 C64.1604735,21.0116171 70.632802,23.8256729 75.5104988,28.6095679 C80.10679,33.0182554 82.7332422,39.2091783 82.6394403,45.5877049 C82.7332422,49.3397793 81.0448086,59.9393897 73.7282634,65.192294 C68.8505666,68.7567647 63.128653,70.9142076 57.031532,71.1018113 L57.2191357,111.249008 L82.5456384,111.249008 L65.0984921,72.9778485 C70.8204057,71.3832169 75.9795081,68.1001517 79.7315826,63.4100586 L85.0782887,63.4100586 L85.0782887,75.0414895 L99.4299736,75.0414895 L99.4299736,86.6729203 L115.470092,86.6729203 L115.470092,21.2930226 L70.8204057,21.2930226 L70.8204057,21.3868245 Z"/>
      <path d="M55.8121078,0.0938018619 L50.8406091,0.0938018619 L49.4335812,1.68843351 L48.0265533,3.28306516 L46.6195253,4.87769682 L45.2124974,6.47232847 L53.7484668,6.47232847 L53.3732594,7.03513964 L52.9980519,7.59795081 L52.6228445,8.16076198 L52.2476371,8.72357315 L36.2075187,8.72357315 L35.1756982,10.2244029 L34.1438777,11.7252327 L33.1120572,13.2260625 L32.0802368,14.7268923 L47.8389495,14.7268923 L47.8389495,19.8859947 L46.9947328,20.1674003 C46.7133272,20.2612022 46.4319216,20.355004 46.2443179,20.5426077 L45.493903,20.9178152 L44.7434881,21.2930226 L0.281405586,21.2930226 L0.281405586,86.6729203 L15.5711091,86.6729203 L15.5711091,75.0414895 L30.0165958,75.0414895 L30.0165958,66.3179163 L30.0165958,63.4100586 L31.4236237,63.4100586 L32.7368498,63.4100586 L35.5509056,63.4100586 C35.7385094,63.5976623 35.8323112,63.7852661 36.019915,63.9728698 L36.4889243,64.535681 L37.0517354,65.0984921 C37.2393392,65.2860958 37.4269429,65.4736996 37.6145466,65.6613033 C38.4587634,66.5055201 39.396782,67.3497368 40.3348006,68.1001517 C41.2728192,68.8505666 42.3046397,69.5071796 43.3364602,70.0699908 C44.3682807,70.632802 45.493903,71.1956131 46.5257235,71.6646225 C47.6513458,72.1336318 48.7769682,72.5088392 49.9025905,72.8840467 L45.4001011,82.4518366 L40.8976118,92.0196265 L36.3951224,101.587416 L31.892633,111.155206 L57.4067395,111.155206 L57.4067395,83.3898552 L57.2191357,71.1018113 C57.2191357,71.1018113 49.5273831,71.289415 41.2728192,65.0984921 C32.6430479,58.6261637 32.2678405,48.0265533 32.2678405,45.1186956 C32.2678405,42.2108378 33.299661,33.3934628 40.5224043,27.3901437 C47.1823365,20.6364096 57.7819469,20.8240133 57.7819469,20.8240133 L57.4067395,0.0938018619 L55.8121078,0.0938018619 Z"/>
      <polygon points="32.08 47.464 82.733 47.464 82.733 44.556 31.986 44.556"/>
      <path d="M47.4637421,22.7000506 L43.6178658,24.8574934 C37.8021503,38.6463671 37.8959522,54.2174761 43.9930732,67.912548 L47.6513458,69.4133778 C39.9595931,52.6228445 40.053395,39.6781876 47.4637421,22.7000506 Z"/>
      <path d="M53.7484668 21.0116171C46.9947328 38.7401689 47.6513458 54.1236743 53.7484668 70.9142076L56.7501264 71.289415C49.7149868 48.9645719 52.0600333 36.676528 56.7501264 20.5426077L53.7484668 21.0116171zM66.9745294 22.7000506C74.3848764 39.7719894 74.4786783 52.6228445 66.8807275 69.4133778L70.5390001 67.912548C76.6361211 54.2174761 76.729923 38.6463671 70.9142076 24.8574934L66.9745294 22.7000506z"/>
      <path d="M58.0633525,20.8240133 C63.3162567,38.5525652 63.5038605,55.0616929 57.5943432,71.3832169 L60.9712102,70.8204057 C67.0683312,54.1236743 67.0683312,37.8959522 60.6898046,20.9178152 L58.0633525,20.8240133 Z"/>
      <path d="M34.9880945 34.0500759L33.3934628 37.8021503C48.87077 31.6112274 66.1303126 31.6112274 81.6076198 37.8021503L79.8253844 33.956274C66.5055201 28.3281623 48.7769682 28.3281623 34.9880945 34.0500759zM33.3934628 54.0298724L34.9880945 57.7819469C48.7769682 63.5038605 66.5993219 63.4100586 79.9191863 57.7819469L81.4200161 54.1236743C65.9427089 60.2207953 48.7769682 60.2207953 33.3934628 54.0298724z"/>
    </g>
  </g>
</svg>
