<?xml version="1.0" encoding="UTF-8"?>
<svg width="334px" height="374px" viewBox="0 0 334 374" version="1.1" xmlns="http://www.w3.org/2000/svg" xmlns:xlink="http://www.w3.org/1999/xlink">
    <!-- Generator: Sketch 57.1 (83088) - https://sketch.com -->
    <title>MU_StackedMU_RGB</title>
    <desc>Created with Sketch.</desc>
    <defs>
        <polygon id="path-1" points="0.06 0.587 334 0.587 334 374 0.06 374"></polygon>
    </defs>
    <g id="MU_StackedMU_RGB" stroke="none" stroke-width="1" fill="none" fill-rule="evenodd">
        <g id="Group-4">
            <mask id="mask-2" fill="white">
                <use xlink:href="#path-1"></use>
            </mask>
            <g id="Clip-2"></g>
            <path d="M166.982,371.496 L164.936,371.5 C101.467,371.5 55.466,359.993 28.21,337.299 C5.005,317.98 2.5,296.178 2.5,287.702 L2.5,3.087 L147.101,3.087 L166.978,47.952 L186.882,3.087 L331.5,3.087 L331.5,287.702 C331.5,296.178 328.994,317.98 305.787,337.3 C278.527,359.993 232.522,371.5 169.049,371.5 L166.982,371.496" id="Fill-1" fill="#1A1919" mask="url(#mask-2)"></path>
            <path d="M334,0.587 L185.256,0.587 L166.979,41.784 L148.727,0.587 L0,0.587 L0,287.702 C0,296.531 2.593,319.225 26.61,339.221 C54.328,362.298 100.867,374 164.936,374 C165.621,374 166.301,374 166.992,373.996 C167.675,374 168.372,374 169.049,374 C233.122,374 279.666,362.298 307.387,339.221 C331.407,319.225 334,296.531 334,287.702 L334,0.587 Z M329,5.587 L329,287.702 C329,306.444 316.15,369 169.049,369 C168.372,369 167.675,369 166.992,368.996 C167.038,368.995 167.091,368.995 167.137,368.995 L166.848,368.995 C166.894,368.995 166.946,368.995 166.992,368.996 C166.301,369 165.621,369 164.936,369 C17.846,369 5,306.443 5,287.702 L5,5.587 L145.474,5.587 L166.976,54.121 L188.508,5.587 L329,5.587 L329,5.587 Z" id="Fill-3" fill="#FFFFFE" mask="url(#mask-2)"></path>
        </g>
        <path d="M166.904,284.074 C215.179,284.074 214.327,267.069 214.636,262.823 L214.636,235.868 C214.636,230.406 210.925,226.146 204.123,222.513 L204.123,203.565 L287.061,203.565 L287.061,222.381 C280.261,225.988 276.537,230.252 276.537,235.705 L276.537,259.798 C276.208,277.398 284.502,321.697 166.904,321.697 C49.31,321.697 57.601,277.398 57.283,259.798 L57.283,235.705 C57.283,230.252 53.571,225.988 46.762,222.381 L46.762,203.565 L129.7,203.565 L129.7,222.513 C122.879,226.146 119.187,230.406 119.187,235.868 L119.187,262.823 C119.476,267.069 118.642,284.074 166.904,284.074" id="Fill-5" fill="#E8B235"></path>
        <path d="M166.904,118.509 L206.986,46.392 L286.976,46.392 L286.976,65.193 C280.159,68.842 276.456,73.158 276.456,78.621 L276.456,135.895 C276.456,141.357 280.159,145.601 286.976,149.24 L286.976,168.048 L211.232,168.048 L211.232,149.09 C218.042,145.442 221.762,141.207 221.762,135.742 L221.762,92.12 L176.27,168.048 L157.563,168.048 L112.053,92.12 L112.053,135.742 C112.053,141.207 115.763,145.442 122.579,149.09 L122.579,168.048 L46.85,168.048 L46.85,149.24 C53.635,145.601 57.365,141.357 57.365,135.895 L57.365,78.621 C57.365,73.158 53.635,68.842 46.85,65.193 L46.85,46.392 L126.852,46.392 L166.904,118.509" id="Fill-6" fill="#E8B235"></path>
    </g>
</svg>