<?xml version="1.0" encoding="UTF-8"?>
<svg width="2660px" height="798px" viewBox="0 0 2660 798" version="1.1" xmlns="http://www.w3.org/2000/svg" xmlns:xlink="http://www.w3.org/1999/xlink">
    <!-- Generator: Sketch 57.1 (83088) - https://sketch.com -->
    <title>wpp-seeklogo.com</title>
    <desc>Created with Sketch.</desc>
    <defs>
        <polygon id="path-1" points="0.91 0.599 107.23 0.599 107.23 231.94 0.91 231.94"></polygon>
        <polygon id="path-3" points="0.4 0.656 50.43 0.656 50.43 722.94 0.4 722.94"></polygon>
        <polygon id="path-5" points="0.06 0.607 106.319 0.607 106.319 78.783 0.06 78.783"></polygon>
        <polygon id="path-7" points="0.107 0.561 97.045 0.561 97.045 675.94 0.107 675.94"></polygon>
        <polygon id="path-9" points="0.507 0.607 405.46 0.607 405.46 797.94 0.507 797.94"></polygon>
        <polygon id="path-11" points="0.836 0.075 172.823 0.075 172.823 268.94 0.836 268.94"></polygon>
    </defs>
    <g id="wpp-seeklogo.com" stroke="none" stroke-width="1" fill="none" fill-rule="evenodd">
        <path d="M1754.27,377.414 C1740.19,377.414 1729.25,388.358 1729.25,402.43 C1729.25,416.502 1740.19,427.446 1754.27,427.446 C1768.34,427.446 1779.28,416.502 1779.28,402.43 C1779.28,389.922 1768.34,377.414 1754.27,377.414" id="Fill-1" fill="#313F6B"></path>
        <path d="M1754.27,227.316 C1740.19,227.316 1729.25,238.26 1729.25,252.333 C1729.25,266.404 1740.19,277.349 1754.27,277.349 C1768.34,277.349 1779.28,266.404 1779.28,252.333 C1779.28,238.26 1768.34,227.316 1754.27,227.316" id="Fill-2" fill="#313F6B"></path>
        <path d="M1754.27,302.365 C1740.19,302.365 1729.25,313.31 1729.25,327.381 C1729.25,341.453 1740.19,352.397 1754.27,352.397 C1768.34,352.397 1779.28,341.453 1779.28,327.381 C1779.28,313.31 1768.34,302.365 1754.27,302.365" id="Fill-3" fill="#313F6B"></path>
        <path d="M1819.93,113.18 C1805.86,113.18 1794.92,124.125 1794.92,138.197 C1794.92,152.268 1805.86,163.212 1819.93,163.212 C1834,163.212 1844.95,152.268 1844.95,138.197 C1844.95,124.125 1834,113.18 1819.93,113.18" id="Fill-4" fill="#313F6B"></path>
        <path d="M1819.93,47.512 C1810.55,47.512 1804.3,55.33 1804.3,63.147 C1804.3,72.529 1812.12,78.783 1819.93,78.783 C1829.31,78.783 1835.57,70.965 1835.57,63.147 C1835.57,55.33 1827.75,47.512 1819.93,47.512" id="Fill-5" fill="#313F6B"></path>
        <path d="M1754.27,504.059 C1768.34,504.059 1779.28,493.114 1779.28,479.043 C1779.28,464.971 1768.34,454.026 1754.27,454.026 C1740.19,454.026 1729.25,464.971 1729.25,479.043 C1729.25,493.114 1740.19,504.059 1754.27,504.059" id="Fill-6" fill="#313F6B"></path>
        <path d="M1754.27,150.705 C1740.19,150.705 1729.25,161.649 1729.25,175.721 C1729.25,189.793 1740.19,200.736 1754.27,200.736 C1768.34,200.736 1779.28,189.793 1779.28,175.721 C1779.28,161.649 1768.34,150.705 1754.27,150.705" id="Fill-7" fill="#313F6B"></path>
        <path d="M1688.6,416.502 C1674.53,416.502 1663.58,427.446 1663.58,441.518 C1663.58,455.589 1674.53,466.535 1688.6,466.535 C1702.67,466.535 1713.61,455.589 1713.61,441.518 C1713.61,427.446 1702.67,416.502 1688.6,416.502" id="Fill-8" fill="#313F6B"></path>
        <path d="M1688.6,382.104 C1697.98,382.104 1704.23,374.287 1704.23,366.469 C1704.23,357.088 1696.42,350.834 1688.6,350.834 C1679.22,350.834 1672.96,358.652 1672.96,366.469 C1672.96,374.287 1679.22,382.104 1688.6,382.104" id="Fill-9" fill="#313F6B"></path>
        <path d="M1557.26,382.104 C1566.64,382.104 1572.9,374.287 1572.9,366.469 C1572.9,357.088 1565.08,350.834 1557.26,350.834 C1547.88,350.834 1541.63,358.652 1541.63,366.469 C1541.63,374.287 1549.44,382.104 1557.26,382.104" id="Fill-10" fill="#313F6B"></path>
        <path d="M1622.93,571.291 C1632.31,571.291 1638.56,563.472 1638.56,555.655 C1638.56,547.837 1630.75,540.02 1622.93,540.02 C1613.55,540.02 1607.29,547.837 1607.29,555.655 C1607.29,563.472 1615.11,571.291 1622.93,571.291" id="Fill-11" fill="#313F6B"></path>
        <path d="M1688.6,199.172 C1679.22,199.172 1672.96,206.991 1672.96,214.808 C1672.96,224.189 1680.78,230.443 1688.6,230.443 C1697.98,230.443 1704.23,222.626 1704.23,214.808 C1704.23,205.427 1697.98,199.172 1688.6,199.172" id="Fill-12" fill="#313F6B"></path>
        <path d="M1557.26,199.172 C1547.88,199.172 1541.63,206.991 1541.63,214.808 C1541.63,224.189 1549.44,230.443 1557.26,230.443 C1566.64,230.443 1572.9,222.626 1572.9,214.808 C1572.9,205.427 1566.64,199.172 1557.26,199.172" id="Fill-13" fill="#313F6B"></path>
        <path d="M1754.27,75.656 C1740.19,75.656 1729.25,86.6 1729.25,100.671 C1729.25,114.744 1740.19,125.688 1754.27,125.688 C1768.34,125.688 1779.28,114.744 1779.28,100.671 C1779.28,86.6 1768.34,75.656 1754.27,75.656" id="Fill-14" fill="#313F6B"></path>
        <path d="M1754.27,9.988 C1744.88,9.988 1738.63,17.805 1738.63,25.623 C1738.63,35.005 1746.45,41.258 1754.27,41.258 C1763.65,41.258 1769.9,33.441 1769.9,25.623 C1769.9,16.242 1762.08,9.988 1754.27,9.988" id="Fill-15" fill="#313F6B"></path>
        <path d="M1688.6,543.147 C1702.67,543.147 1713.61,532.202 1713.61,518.13 C1713.61,504.059 1702.67,493.114 1688.6,493.114 C1674.53,493.114 1663.58,504.059 1663.58,518.13 C1663.58,532.202 1674.53,543.147 1688.6,543.147" id="Fill-16" fill="#313F6B"></path>
        <path d="M1819.93,264.84 C1805.86,264.84 1794.92,275.786 1794.92,289.857 C1794.92,303.928 1805.86,314.874 1819.93,314.874 C1834,314.874 1844.95,303.928 1844.95,289.857 C1844.95,275.786 1834,264.84 1819.93,264.84" id="Fill-17" fill="#313F6B"></path>
        <path d="M2110.75,189.792 C2096.67,189.792 2085.73,200.736 2085.73,214.808 C2085.73,228.879 2096.67,239.824 2110.75,239.824 C2124.82,239.824 2135.76,228.879 2135.76,214.808 C2135.76,200.736 2124.82,189.792 2110.75,189.792" id="Fill-18" fill="#313F6B"></path>
        <path d="M2110.75,113.18 C2096.67,113.18 2085.73,124.125 2085.73,138.197 C2085.73,152.268 2096.67,163.212 2110.75,163.212 C2124.82,163.212 2135.76,152.268 2135.76,138.197 C2135.76,124.125 2124.82,113.18 2110.75,113.18" id="Fill-19" fill="#313F6B"></path>
        <path d="M1885.6,302.365 C1871.53,302.365 1860.58,313.31 1860.58,327.381 C1860.58,341.453 1871.53,352.397 1885.6,352.397 C1899.67,352.397 1910.62,341.453 1910.62,327.381 C1910.62,313.31 1899.67,302.365 1885.6,302.365" id="Fill-20" fill="#313F6B"></path>
        <path d="M2110.75,38.131 C2096.67,38.131 2085.73,49.076 2085.73,63.147 C2085.73,77.219 2096.67,88.164 2110.75,88.164 C2124.82,88.164 2135.76,77.219 2135.76,63.147 C2135.76,49.076 2124.82,38.131 2110.75,38.131" id="Fill-21" fill="#313F6B"></path>
        <path d="M2110.75,416.502 C2096.67,416.502 2085.73,427.446 2085.73,441.518 C2085.73,455.589 2096.67,466.535 2110.75,466.535 C2124.82,466.535 2135.76,455.589 2135.76,441.518 C2135.76,427.446 2124.82,416.502 2110.75,416.502" id="Fill-22" fill="#313F6B"></path>
        <path d="M2110.75,339.889 C2096.67,339.889 2085.73,350.834 2085.73,364.906 C2085.73,378.977 2096.67,389.922 2110.75,389.922 C2124.82,389.922 2135.76,378.977 2135.76,364.906 C2135.76,352.397 2124.82,339.889 2110.75,339.889" id="Fill-23" fill="#313F6B"></path>
        <path d="M2110.75,264.84 C2096.67,264.84 2085.73,275.786 2085.73,289.857 C2085.73,303.928 2096.67,314.874 2110.75,314.874 C2124.82,314.874 2135.76,303.928 2135.76,289.857 C2135.76,275.786 2124.82,264.84 2110.75,264.84" id="Fill-24" fill="#313F6B"></path>
        <path d="M1425.93,339.889 C1411.85,339.889 1400.91,350.834 1400.91,364.906 C1400.91,378.977 1411.85,389.922 1425.93,389.922 C1440,389.922 1450.94,378.977 1450.94,364.906 C1452.51,352.397 1440,339.889 1425.93,339.889" id="Fill-25" fill="#313F6B"></path>
        <path d="M1819.93,466.535 C1834,466.535 1844.95,455.589 1844.95,441.518 C1844.95,427.446 1834,416.502 1819.93,416.502 C1805.86,416.502 1794.92,427.446 1794.92,441.518 C1793.35,455.589 1805.86,466.535 1819.93,466.535" id="Fill-26" fill="#313F6B"></path>
        <path d="M1885.6,227.316 C1871.53,227.316 1860.58,238.26 1860.58,252.333 C1860.58,266.404 1871.53,277.349 1885.6,277.349 C1899.67,277.349 1910.62,266.404 1910.62,252.333 C1910.62,238.26 1899.67,227.316 1885.6,227.316" id="Fill-27" fill="#313F6B"></path>
        <path d="M1688.6,113.18 C1674.53,113.18 1663.58,124.125 1663.58,138.197 C1663.58,152.268 1674.53,163.212 1688.6,163.212 C1702.67,163.212 1713.61,152.268 1713.61,138.197 C1713.61,124.125 1702.67,113.18 1688.6,113.18" id="Fill-28" fill="#313F6B"></path>
        <path d="M1819.93,339.889 C1805.86,339.889 1794.92,350.834 1794.92,364.906 C1794.92,378.977 1805.86,389.922 1819.93,389.922 C1834,389.922 1844.95,378.977 1844.95,364.906 C1844.95,352.397 1834,339.889 1819.93,339.889" id="Fill-29" fill="#313F6B"></path>
        <path d="M1885.6,419.628 C1894.98,419.628 1901.24,411.811 1901.24,403.994 C1901.24,394.613 1893.42,388.358 1885.6,388.358 C1877.78,388.358 1869.97,396.176 1869.97,403.994 C1869.97,411.811 1876.22,419.628 1885.6,419.628" id="Fill-30" fill="#313F6B"></path>
        <path d="M1885.6,150.705 C1871.53,150.705 1860.58,161.649 1860.58,175.721 C1860.58,189.793 1871.53,200.736 1885.6,200.736 C1899.67,200.736 1910.62,189.793 1910.62,175.721 C1910.62,161.649 1899.67,150.705 1885.6,150.705" id="Fill-31" fill="#313F6B"></path>
        <path d="M1491.59,529.075 C1477.52,529.075 1466.58,540.02 1466.58,554.091 C1466.58,568.163 1477.52,579.107 1491.59,579.107 C1505.67,579.107 1516.61,568.163 1516.61,554.091 C1518.17,540.02 1505.67,529.075 1491.59,529.075" id="Fill-32" fill="#313F6B"></path>
        <path d="M1491.59,227.316 C1477.52,227.316 1466.58,238.26 1466.58,252.333 C1466.58,266.404 1477.52,277.349 1491.59,277.349 C1505.67,277.349 1516.61,266.404 1516.61,252.333 C1518.17,238.26 1505.67,227.316 1491.59,227.316" id="Fill-33" fill="#313F6B"></path>
        <path d="M1688.6,38.131 C1674.53,38.131 1663.58,49.076 1663.58,63.147 C1663.58,77.219 1674.53,88.164 1688.6,88.164 C1702.67,88.164 1713.61,77.219 1713.61,63.147 C1713.61,49.076 1702.67,38.131 1688.6,38.131" id="Fill-34" fill="#313F6B"></path>
        <path d="M1491.59,75.656 C1477.52,75.656 1466.58,86.6 1466.58,100.671 C1466.58,114.744 1477.52,125.688 1491.59,125.688 C1505.67,125.688 1516.61,114.744 1516.61,100.671 C1518.17,86.6 1505.67,75.656 1491.59,75.656" id="Fill-35" fill="#313F6B"></path>
        <path d="M1491.59,0.607 C1477.52,0.607 1466.58,11.551 1466.58,25.623 C1466.58,39.695 1477.52,50.639 1491.59,50.639 C1505.67,50.639 1516.61,39.695 1516.61,25.623 C1516.61,11.551 1505.67,0.607 1491.59,0.607" id="Fill-36" fill="#313F6B"></path>
        <path d="M1491.59,454.026 C1477.52,454.026 1466.58,464.971 1466.58,479.043 C1466.58,493.114 1477.52,504.059 1491.59,504.059 C1505.67,504.059 1516.61,493.114 1516.61,479.043 C1518.17,464.971 1505.67,454.026 1491.59,454.026" id="Fill-37" fill="#313F6B"></path>
        <path d="M1491.59,377.414 C1477.52,377.414 1466.58,388.358 1466.58,402.43 C1466.58,416.502 1477.52,427.446 1491.59,427.446 C1505.67,427.446 1516.61,416.502 1516.61,402.43 C1518.17,389.922 1505.67,377.414 1491.59,377.414" id="Fill-38" fill="#313F6B"></path>
        <path d="M1491.59,302.365 C1477.52,302.365 1466.58,313.31 1466.58,327.381 C1466.58,341.453 1477.52,352.397 1491.59,352.397 C1505.67,352.397 1516.61,341.453 1516.61,327.381 C1518.17,313.31 1505.67,302.365 1491.59,302.365" id="Fill-39" fill="#313F6B"></path>
        <path d="M1425.93,491.55 C1411.85,491.55 1400.91,502.496 1400.91,516.567 C1400.91,530.638 1411.85,541.584 1425.93,541.584 C1440,541.584 1450.94,530.638 1450.94,516.567 C1450.94,502.496 1440,491.55 1425.93,491.55" id="Fill-40" fill="#313F6B"></path>
        <g id="Group-44" transform="translate(1400.000000, 566.000000)">
            <mask id="mask-2" fill="white">
                <use xlink:href="#path-1"></use>
            </mask>
            <g id="Clip-42"></g>
            <path d="M25.93,0.599 C11.85,0.599 0.91,11.545 0.91,25.616 C0.91,39.687 11.85,50.631 25.93,50.631 C40,50.631 50.94,39.687 50.94,25.616 C52.51,13.108 40,0.599 25.93,0.599" id="Fill-41" fill="#313F6B" mask="url(#mask-2)"></path>
            <path d="M91.59,232 C100.97,232 107.23,224.182 107.23,216.365 C107.23,206.983 99.41,200.729 91.59,200.729 C82.21,200.729 75.96,208.546 75.96,216.365 C75.96,224.182 83.78,232 91.59,232" id="Fill-43" fill="#313F6B" mask="url(#mask-2)"></path>
        </g>
        <path d="M1425.93,416.502 C1411.85,416.502 1400.91,427.446 1400.91,441.518 C1400.91,455.589 1411.85,466.535 1425.93,466.535 C1440,466.535 1450.94,455.589 1450.94,441.518 C1452.51,427.446 1440,416.502 1425.93,416.502" id="Fill-45" fill="#313F6B"></path>
        <path d="M2110.75,491.55 C2096.67,491.55 2085.73,502.496 2085.73,516.567 C2085.73,530.638 2096.67,541.584 2110.75,541.584 C2124.82,541.584 2135.76,530.638 2135.76,516.567 C2135.76,502.496 2124.82,491.55 2110.75,491.55" id="Fill-46" fill="#313F6B"></path>
        <path d="M1425.93,643.211 C1411.85,643.211 1400.91,654.156 1400.91,668.227 C1400.91,682.299 1411.85,693.244 1425.93,693.244 C1440,693.244 1450.94,682.299 1450.94,668.227 C1452.51,654.156 1440,643.211 1425.93,643.211" id="Fill-47" fill="#313F6B"></path>
        <path d="M1425.93,769.856 C1440,769.856 1450.94,758.912 1450.94,744.84 C1450.94,730.768 1440,719.824 1425.93,719.824 C1411.85,719.824 1400.91,730.768 1400.91,744.84 C1400.91,757.348 1411.86,769.856 1425.93,769.856" id="Fill-48" fill="#313F6B"></path>
        <path d="M1491.59,150.705 C1477.52,150.705 1466.58,161.649 1466.58,175.721 C1466.58,189.793 1477.52,200.736 1491.59,200.736 C1505.67,200.736 1516.61,189.793 1516.61,175.721 C1516.61,161.649 1505.67,150.705 1491.59,150.705" id="Fill-49" fill="#313F6B"></path>
        <path d="M1622.93,75.656 C1608.86,75.656 1597.91,86.6 1597.91,100.671 C1597.91,114.744 1608.86,125.688 1622.93,125.688 C1637,125.688 1647.95,114.744 1647.95,100.671 C1647.95,86.6 1637,75.656 1622.93,75.656" id="Fill-50" fill="#313F6B"></path>
        <path d="M1622.93,150.705 C1608.86,150.705 1597.91,161.649 1597.91,175.721 C1597.91,189.793 1608.86,200.736 1622.93,200.736 C1637,200.736 1647.95,189.793 1647.95,175.721 C1647.95,161.649 1637,150.705 1622.93,150.705" id="Fill-51" fill="#313F6B"></path>
        <path d="M1622.93,0.607 C1608.86,0.607 1597.91,11.551 1597.91,25.623 C1597.91,39.695 1608.86,50.639 1622.93,50.639 C1637,50.639 1647.95,39.695 1647.95,25.623 C1647.95,11.551 1637,0.607 1622.93,0.607" id="Fill-52" fill="#313F6B"></path>
        <path d="M1557.26,543.147 C1571.33,543.147 1582.28,532.202 1582.28,518.13 C1582.28,504.059 1571.33,493.114 1557.26,493.114 C1543.19,493.114 1532.25,504.059 1532.25,518.13 C1532.25,532.202 1543.19,543.147 1557.26,543.147" id="Fill-53" fill="#313F6B"></path>
        <path d="M1491.59,605.688 C1477.52,605.688 1466.58,616.632 1466.58,630.703 C1466.58,644.775 1477.52,655.719 1491.59,655.719 C1505.67,655.719 1516.61,644.775 1516.61,630.703 C1518.17,616.632 1505.67,605.688 1491.59,605.688" id="Fill-54" fill="#313F6B"></path>
        <path d="M1622.93,377.414 C1608.86,377.414 1597.91,388.358 1597.91,402.43 C1597.91,416.502 1608.86,427.446 1622.93,427.446 C1637,427.446 1647.95,416.502 1647.95,402.43 C1647.95,389.922 1637,377.414 1622.93,377.414" id="Fill-55" fill="#313F6B"></path>
        <path d="M1622.93,504.059 C1637,504.059 1647.95,493.114 1647.95,479.043 C1647.95,464.971 1637,454.026 1622.93,454.026 C1608.86,454.026 1597.91,464.971 1597.91,479.043 C1597.91,493.114 1608.86,504.059 1622.93,504.059" id="Fill-56" fill="#313F6B"></path>
        <path d="M1557.26,113.18 C1543.19,113.18 1532.25,124.125 1532.25,138.197 C1532.25,152.268 1543.19,163.212 1557.26,163.212 C1571.33,163.212 1582.28,152.268 1582.28,138.197 C1582.28,124.125 1571.33,113.18 1557.26,113.18" id="Fill-57" fill="#313F6B"></path>
        <path d="M1557.26,38.131 C1543.19,38.131 1532.25,49.076 1532.25,63.147 C1532.25,77.219 1543.19,88.164 1557.26,88.164 C1571.33,88.164 1582.28,77.219 1582.28,63.147 C1583.84,49.076 1571.33,38.131 1557.26,38.131" id="Fill-58" fill="#313F6B"></path>
        <path d="M1491.59,680.736 C1477.52,680.736 1466.58,691.68 1466.58,705.752 C1466.58,719.824 1477.52,730.768 1491.59,730.768 C1505.67,730.768 1516.61,719.824 1516.61,705.752 C1518.17,691.68 1505.67,680.736 1491.59,680.736" id="Fill-59" fill="#313F6B"></path>
        <path d="M1557.26,416.502 C1543.19,416.502 1532.25,427.446 1532.25,441.518 C1532.25,455.589 1543.19,466.535 1557.26,466.535 C1571.33,466.535 1582.28,455.589 1582.28,441.518 C1583.84,427.446 1571.33,416.502 1557.26,416.502" id="Fill-60" fill="#313F6B"></path>
        <path d="M1819.93,189.792 C1805.86,189.792 1794.92,200.736 1794.92,214.808 C1794.92,228.879 1805.86,239.824 1819.93,239.824 C1834,239.824 1844.95,228.879 1844.95,214.808 C1844.95,200.736 1834,189.792 1819.93,189.792" id="Fill-61" fill="#313F6B"></path>
        <path d="M2437.52,75.656 C2423.45,75.656 2412.5,86.6 2412.5,100.671 C2412.5,114.744 2423.45,125.688 2437.52,125.688 C2451.59,125.688 2462.54,114.744 2462.54,100.671 C2462.54,86.6 2451.59,75.656 2437.52,75.656" id="Fill-62" fill="#313F6B"></path>
        <path d="M2437.52,150.705 C2423.45,150.705 2412.5,161.649 2412.5,175.721 C2412.5,189.793 2423.45,200.736 2437.52,200.736 C2451.59,200.736 2462.54,189.793 2462.54,175.721 C2462.54,161.649 2451.59,150.705 2437.52,150.705" id="Fill-63" fill="#313F6B"></path>
        <path d="M2437.52,454.026 C2423.45,454.026 2412.5,464.971 2412.5,479.043 C2412.5,493.114 2423.45,504.059 2437.52,504.059 C2451.59,504.059 2462.54,493.114 2462.54,479.043 C2462.54,464.971 2451.59,454.026 2437.52,454.026" id="Fill-64" fill="#313F6B"></path>
        <path d="M2437.52,377.414 C2423.45,377.414 2412.5,388.358 2412.5,402.43 C2412.5,416.502 2423.45,427.446 2437.52,427.446 C2451.59,427.446 2462.54,416.502 2462.54,402.43 C2462.54,389.922 2451.59,377.414 2437.52,377.414" id="Fill-65" fill="#313F6B"></path>
        <path d="M2503.19,38.131 C2489.12,38.131 2478.17,49.076 2478.17,63.147 C2478.17,77.219 2489.12,88.164 2503.19,88.164 C2517.26,88.164 2528.21,77.219 2528.21,63.147 C2528.21,49.076 2517.26,38.131 2503.19,38.131" id="Fill-66" fill="#313F6B"></path>
        <path d="M2503.19,189.792 C2489.12,189.792 2478.17,200.736 2478.17,214.808 C2478.17,228.879 2489.12,239.824 2503.19,239.824 C2517.26,239.824 2528.21,228.879 2528.21,214.808 C2528.21,200.736 2517.26,189.792 2503.19,189.792" id="Fill-67" fill="#313F6B"></path>
        <path d="M2503.19,264.84 C2489.12,264.84 2478.17,275.786 2478.17,289.857 C2478.17,303.928 2489.12,314.874 2503.19,314.874 C2517.26,314.874 2528.21,303.928 2528.21,289.857 C2528.21,275.786 2517.26,264.84 2503.19,264.84" id="Fill-68" fill="#313F6B"></path>
        <path d="M2503.19,113.18 C2489.12,113.18 2478.17,124.125 2478.17,138.197 C2478.17,152.268 2489.12,163.212 2503.19,163.212 C2517.26,163.212 2528.21,152.268 2528.21,138.197 C2528.21,124.125 2517.26,113.18 2503.19,113.18" id="Fill-69" fill="#313F6B"></path>
        <path d="M2371.85,113.18 C2357.78,113.18 2346.84,124.125 2346.84,138.197 C2346.84,152.268 2357.78,163.212 2371.85,163.212 C2385.93,163.212 2396.87,152.268 2396.87,138.197 C2396.87,124.125 2385.93,113.18 2371.85,113.18" id="Fill-70" fill="#313F6B"></path>
        <path d="M2437.52,9.988 C2428.14,9.988 2421.89,17.805 2421.89,25.623 C2421.89,35.005 2429.7,41.258 2437.52,41.258 C2446.9,41.258 2453.16,33.441 2453.16,25.623 C2453.16,16.242 2446.9,9.988 2437.52,9.988" id="Fill-71" fill="#313F6B"></path>
        <path d="M2371.85,199.172 C2362.47,199.172 2356.22,206.991 2356.22,214.808 C2356.22,224.189 2364.04,230.443 2371.85,230.443 C2381.23,230.443 2387.49,222.626 2387.49,214.808 C2387.49,205.427 2381.23,199.172 2371.85,199.172" id="Fill-72" fill="#313F6B"></path>
        <path d="M2371.85,349.27 C2362.47,349.27 2356.22,357.088 2356.22,364.906 C2356.22,374.287 2364.04,380.541 2371.85,380.541 C2381.23,380.541 2387.49,372.723 2387.49,364.906 C2387.49,357.088 2381.23,349.27 2371.85,349.27" id="Fill-73" fill="#313F6B"></path>
        <path d="M2437.52,538.457 C2428.14,538.457 2421.89,546.274 2421.89,554.091 C2421.89,563.472 2429.7,569.727 2437.52,569.727 C2446.9,569.727 2453.16,561.909 2453.16,554.091 C2453.16,546.274 2446.9,538.457 2437.52,538.457" id="Fill-74" fill="#313F6B"></path>
        <path d="M2371.85,38.131 C2357.78,38.131 2346.84,49.076 2346.84,63.147 C2346.84,77.219 2357.78,88.164 2371.85,88.164 C2385.93,88.164 2396.87,77.219 2396.87,63.147 C2396.87,49.076 2385.93,38.131 2371.85,38.131" id="Fill-75" fill="#313F6B"></path>
        <path d="M2371.85,416.502 C2357.78,416.502 2346.84,427.446 2346.84,441.518 C2346.84,455.589 2357.78,466.535 2371.85,466.535 C2385.93,466.535 2396.87,455.589 2396.87,441.518 C2396.87,427.446 2385.93,416.502 2371.85,416.502" id="Fill-76" fill="#313F6B"></path>
        <path d="M2371.85,543.147 C2385.93,543.147 2396.87,532.202 2396.87,518.13 C2396.87,504.059 2385.93,493.114 2371.85,493.114 C2357.78,493.114 2346.84,504.059 2346.84,518.13 C2346.84,532.202 2357.78,543.147 2371.85,543.147" id="Fill-77" fill="#313F6B"></path>
        <path d="M2306.19,571.291 C2315.57,571.291 2321.82,563.472 2321.82,555.655 C2321.82,547.837 2314,540.02 2306.19,540.02 C2296.8,540.02 2290.55,547.837 2290.55,555.655 C2290.55,563.472 2298.37,571.291 2306.19,571.291" id="Fill-78" fill="#313F6B"></path>
        <path d="M2634.52,122.561 C2625.14,122.561 2618.89,130.378 2618.89,138.197 C2618.89,147.578 2626.71,153.832 2634.52,153.832 C2643.91,153.832 2650.16,146.014 2650.16,138.197 C2650.16,130.378 2642.34,122.561 2634.52,122.561" id="Fill-79" fill="#313F6B"></path>
        <path d="M2568.86,494.677 C2578.24,494.677 2584.49,486.86 2584.49,479.043 C2584.49,469.662 2576.67,463.407 2568.86,463.407 C2559.48,463.407 2553.22,471.225 2553.22,479.043 C2553.22,488.423 2559.48,494.677 2568.86,494.677" id="Fill-80" fill="#313F6B"></path>
        <path d="M2503.19,532.202 C2512.57,532.202 2518.82,524.384 2518.82,516.567 C2518.82,507.186 2511.01,500.932 2503.19,500.932 C2493.81,500.932 2487.55,508.75 2487.55,516.567 C2487.55,525.948 2493.81,532.202 2503.19,532.202" id="Fill-81" fill="#313F6B"></path>
        <path d="M2634.52,239.824 C2648.6,239.824 2659.54,228.879 2659.54,214.808 C2659.54,200.736 2648.6,189.792 2634.52,189.792 C2620.45,189.792 2609.51,200.736 2609.51,214.808 C2607.95,228.879 2620.45,239.824 2634.52,239.824" id="Fill-82" fill="#313F6B"></path>
        <path d="M2634.52,339.889 C2620.45,339.889 2609.51,350.834 2609.51,364.906 C2609.51,378.977 2620.45,389.922 2634.52,389.922 C2648.6,389.922 2659.54,378.977 2659.54,364.906 C2659.54,352.397 2648.6,339.889 2634.52,339.889" id="Fill-83" fill="#313F6B"></path>
        <path d="M2634.52,264.84 C2620.45,264.84 2609.51,275.786 2609.51,289.857 C2609.51,303.928 2620.45,314.874 2634.52,314.874 C2648.6,314.874 2659.54,303.928 2659.54,289.857 C2659.54,275.786 2648.6,264.84 2634.52,264.84" id="Fill-84" fill="#313F6B"></path>
        <path d="M2568.86,377.414 C2554.79,377.414 2543.84,388.358 2543.84,402.43 C2543.84,416.502 2554.79,427.446 2568.86,427.446 C2582.93,427.446 2593.87,416.502 2593.87,402.43 C2593.87,389.922 2582.93,377.414 2568.86,377.414" id="Fill-85" fill="#313F6B"></path>
        <path d="M2568.86,302.365 C2554.79,302.365 2543.84,313.31 2543.84,327.381 C2543.84,341.453 2554.79,352.397 2568.86,352.397 C2582.93,352.397 2593.87,341.453 2593.87,327.381 C2593.87,313.31 2582.93,302.365 2568.86,302.365" id="Fill-86" fill="#313F6B"></path>
        <path d="M2503.19,416.502 C2489.12,416.502 2478.17,427.446 2478.17,441.518 C2478.17,455.589 2489.12,466.535 2503.19,466.535 C2517.26,466.535 2528.21,455.589 2528.21,441.518 C2528.21,427.446 2517.26,416.502 2503.19,416.502" id="Fill-87" fill="#313F6B"></path>
        <path d="M2568.86,75.656 C2554.79,75.656 2543.84,86.6 2543.84,100.671 C2543.84,114.744 2554.79,125.688 2568.86,125.688 C2582.93,125.688 2593.87,114.744 2593.87,100.671 C2593.87,86.6 2582.93,75.656 2568.86,75.656" id="Fill-88" fill="#313F6B"></path>
        <path d="M2568.86,227.316 C2554.79,227.316 2543.84,238.26 2543.84,252.333 C2543.84,266.404 2554.79,277.349 2568.86,277.349 C2582.93,277.349 2593.87,266.404 2593.87,252.333 C2593.87,238.26 2582.93,227.316 2568.86,227.316" id="Fill-89" fill="#313F6B"></path>
        <path d="M2503.19,339.889 C2489.12,339.889 2478.17,350.834 2478.17,364.906 C2478.17,378.977 2489.12,389.922 2503.19,389.922 C2517.26,389.922 2528.21,378.977 2528.21,364.906 C2528.21,352.397 2517.26,339.889 2503.19,339.889" id="Fill-90" fill="#313F6B"></path>
        <path d="M2568.86,150.705 C2554.79,150.705 2543.84,161.649 2543.84,175.721 C2543.84,189.793 2554.79,200.736 2568.86,200.736 C2582.93,200.736 2593.87,189.793 2593.87,175.721 C2593.87,161.649 2582.93,150.705 2568.86,150.705" id="Fill-91" fill="#313F6B"></path>
        <path d="M2176.41,377.414 C2162.34,377.414 2151.4,388.358 2151.4,402.43 C2151.4,416.502 2162.34,427.446 2176.41,427.446 C2190.49,427.446 2201.43,416.502 2201.43,402.43 C2201.43,389.922 2190.49,377.414 2176.41,377.414" id="Fill-92" fill="#313F6B"></path>
        <path d="M2110.75,566.599 C2096.67,566.599 2085.73,577.545 2085.73,591.616 C2085.73,605.687 2096.67,616.631 2110.75,616.631 C2124.82,616.631 2135.76,605.687 2135.76,591.616 C2135.76,579.108 2124.82,566.599 2110.75,566.599" id="Fill-93" fill="#313F6B"></path>
        <path d="M2176.41,454.026 C2162.34,454.026 2151.4,464.971 2151.4,479.043 C2151.4,493.114 2162.34,504.059 2176.41,504.059 C2190.49,504.059 2201.43,493.114 2201.43,479.043 C2201.43,464.971 2190.49,454.026 2176.41,454.026" id="Fill-94" fill="#313F6B"></path>
        <path d="M2306.19,454.026 C2292.12,454.026 2281.17,464.971 2281.17,479.043 C2281.17,493.114 2292.11,504.059 2306.19,504.059 C2320.26,504.059 2331.2,493.114 2331.2,479.043 C2332.77,464.971 2320.26,454.026 2306.19,454.026" id="Fill-95" fill="#313F6B"></path>
        <path d="M2176.41,680.736 C2162.34,680.736 2151.4,691.68 2151.4,705.752 C2151.4,719.824 2162.34,730.768 2176.41,730.768 C2190.49,730.768 2201.43,719.824 2201.43,705.752 C2201.43,691.68 2190.49,680.736 2176.41,680.736" id="Fill-96" fill="#313F6B"></path>
        <path d="M2176.41,529.075 C2162.34,529.075 2151.4,540.02 2151.4,554.091 C2151.4,568.163 2162.34,579.107 2176.41,579.107 C2190.49,579.107 2201.43,568.163 2201.43,554.091 C2201.43,540.02 2190.49,529.075 2176.41,529.075" id="Fill-97" fill="#313F6B"></path>
        <path d="M2176.41,227.316 C2162.34,227.316 2151.4,238.26 2151.4,252.333 C2151.4,266.404 2162.34,277.349 2176.41,277.349 C2190.49,277.349 2201.43,266.404 2201.43,252.333 C2201.43,238.26 2190.49,227.316 2176.41,227.316" id="Fill-98" fill="#313F6B"></path>
        <path d="M2176.41,605.688 C2162.34,605.688 2151.4,616.632 2151.4,630.703 C2151.4,644.775 2162.34,655.719 2176.41,655.719 C2190.49,655.719 2201.43,644.775 2201.43,630.703 C2201.43,616.632 2190.49,605.688 2176.41,605.688" id="Fill-99" fill="#313F6B"></path>
        <g id="Group-103" transform="translate(2151.000000, 75.000000)">
            <mask id="mask-4" fill="white">
                <use xlink:href="#path-3"></use>
            </mask>
            <g id="Clip-101"></g>
            <path d="M25.41,0.656 C11.34,0.656 0.4,11.6 0.4,25.671 C0.4,39.744 11.34,50.688 25.41,50.688 C39.49,50.688 50.43,39.744 50.43,25.671 C50.43,11.6 39.49,0.656 25.41,0.656" id="Fill-100" fill="#313F6B" mask="url(#mask-4)"></path>
            <path d="M25.41,723 C34.8,723 41.05,715.182 41.05,707.365 C41.05,697.983 33.23,691.729 25.41,691.729 C16.03,691.729 9.78,699.546 9.78,707.365 C8.22,715.182 16.03,723 25.41,723" id="Fill-102" fill="#313F6B" mask="url(#mask-4)"></path>
        </g>
        <path d="M2110.75,769.856 C2124.82,769.856 2135.76,758.912 2135.76,744.84 C2135.76,730.768 2124.82,719.824 2110.75,719.824 C2096.67,719.824 2085.73,730.768 2085.73,744.84 C2084.17,757.348 2096.67,769.856 2110.75,769.856" id="Fill-104" fill="#313F6B"></path>
        <path d="M2110.75,643.211 C2096.67,643.211 2085.73,654.156 2085.73,668.227 C2085.73,682.299 2096.67,693.244 2110.75,693.244 C2124.82,693.244 2135.76,682.299 2135.76,668.227 C2135.76,654.156 2124.82,643.211 2110.75,643.211" id="Fill-105" fill="#313F6B"></path>
        <path d="M2176.41,150.705 C2162.34,150.705 2151.4,161.649 2151.4,175.721 C2151.4,189.793 2162.34,200.736 2176.41,200.736 C2190.49,200.736 2201.43,189.793 2201.43,175.721 C2201.43,161.649 2190.49,150.705 2176.41,150.705" id="Fill-106" fill="#313F6B"></path>
        <path d="M2176.41,0.607 C2162.34,0.607 2151.4,11.551 2151.4,25.623 C2151.4,39.695 2162.34,50.639 2176.41,50.639 C2190.49,50.639 2201.43,39.695 2201.43,25.623 C2201.43,11.551 2190.49,0.607 2176.41,0.607" id="Fill-107" fill="#313F6B"></path>
        <path d="M2240.52,38.131 C2226.45,38.131 2215.5,49.076 2215.5,63.147 C2215.5,77.219 2226.45,88.164 2240.52,88.164 C2254.59,88.164 2265.54,77.219 2265.54,63.147 C2267.1,49.076 2254.59,38.131 2240.52,38.131" id="Fill-108" fill="#313F6B"></path>
        <path d="M2176.41,302.365 C2162.34,302.365 2151.4,313.31 2151.4,327.381 C2151.4,341.453 2162.34,352.397 2176.41,352.397 C2190.49,352.397 2201.43,341.453 2201.43,327.381 C2201.43,313.31 2190.49,302.365 2176.41,302.365" id="Fill-109" fill="#313F6B"></path>
        <path d="M2306.19,0.607 C2292.12,0.607 2281.17,11.551 2281.17,25.623 C2281.17,39.695 2292.11,50.639 2306.19,50.639 C2320.26,50.639 2331.2,39.695 2331.2,25.623 C2331.2,11.551 2320.26,0.607 2306.19,0.607" id="Fill-110" fill="#313F6B"></path>
        <path d="M2306.19,75.656 C2292.12,75.656 2281.17,86.6 2281.17,100.671 C2281.17,114.744 2292.11,125.688 2306.19,125.688 C2320.26,125.688 2331.2,114.744 2331.2,100.671 C2332.77,86.6 2320.26,75.656 2306.19,75.656" id="Fill-111" fill="#313F6B"></path>
        <path d="M2240.52,769.856 C2254.59,769.856 2265.54,758.912 2265.54,744.84 C2265.54,730.768 2254.59,719.824 2240.52,719.824 C2226.45,719.824 2215.5,730.768 2215.5,744.84 C2215.5,757.348 2226.45,769.856 2240.52,769.856" id="Fill-112" fill="#313F6B"></path>
        <path d="M2306.19,377.414 C2292.12,377.414 2281.17,388.358 2281.17,402.43 C2281.17,416.502 2292.11,427.446 2306.19,427.446 C2320.26,427.446 2331.2,416.502 2331.2,402.43 C2332.77,389.922 2320.26,377.414 2306.19,377.414" id="Fill-113" fill="#313F6B"></path>
        <path d="M2240.52,643.211 C2226.45,643.211 2215.5,654.156 2215.5,668.227 C2215.5,682.299 2226.45,693.244 2240.52,693.244 C2254.59,693.244 2265.54,682.299 2265.54,668.227 C2267.1,654.156 2254.59,643.211 2240.52,643.211" id="Fill-114" fill="#313F6B"></path>
        <path d="M2306.19,150.705 C2292.12,150.705 2281.17,161.649 2281.17,175.721 C2281.17,189.793 2292.11,200.736 2306.19,200.736 C2320.26,200.736 2331.2,189.793 2331.2,175.721 C2331.2,161.649 2320.26,150.705 2306.19,150.705" id="Fill-115" fill="#313F6B"></path>
        <path d="M2240.52,416.502 C2226.45,416.502 2215.5,427.446 2215.5,441.518 C2215.5,455.589 2226.45,466.535 2240.52,466.535 C2254.59,466.535 2265.54,455.589 2265.54,441.518 C2267.1,427.446 2254.59,416.502 2240.52,416.502" id="Fill-116" fill="#313F6B"></path>
        <path d="M2240.52,339.889 C2226.45,339.889 2215.5,350.834 2215.5,364.906 C2215.5,378.977 2226.45,389.922 2240.52,389.922 C2254.59,389.922 2265.54,378.977 2265.54,364.906 C2267.1,352.397 2254.59,339.889 2240.52,339.889" id="Fill-117" fill="#313F6B"></path>
        <path d="M2240.52,264.84 C2226.45,264.84 2215.5,275.786 2215.5,289.857 C2215.5,303.928 2226.45,314.874 2240.52,314.874 C2254.59,314.874 2265.54,303.928 2265.54,289.857 C2267.1,275.786 2254.59,264.84 2240.52,264.84" id="Fill-118" fill="#313F6B"></path>
        <path d="M2240.52,189.792 C2226.45,189.792 2215.5,200.736 2215.5,214.808 C2215.5,228.879 2226.45,239.824 2240.52,239.824 C2254.59,239.824 2265.54,228.879 2265.54,214.808 C2267.1,200.736 2254.59,189.792 2240.52,189.792" id="Fill-119" fill="#313F6B"></path>
        <path d="M2240.52,113.18 C2226.45,113.18 2215.5,124.125 2215.5,138.197 C2215.5,152.268 2226.45,163.212 2240.52,163.212 C2254.59,163.212 2265.54,152.268 2265.54,138.197 C2265.54,124.125 2254.59,113.18 2240.52,113.18" id="Fill-120" fill="#313F6B"></path>
        <path d="M2240.52,491.55 C2226.45,491.55 2215.5,502.496 2215.5,516.567 C2215.5,530.638 2226.45,541.584 2240.52,541.584 C2254.59,541.584 2265.54,530.638 2265.54,516.567 C2265.54,502.496 2254.59,491.55 2240.52,491.55" id="Fill-121" fill="#313F6B"></path>
        <path d="M2240.52,566.599 C2226.45,566.599 2215.5,577.545 2215.5,591.616 C2215.5,605.687 2226.45,616.631 2240.52,616.631 C2254.59,616.631 2265.54,605.687 2265.54,591.616 C2267.1,579.108 2254.59,566.599 2240.52,566.599" id="Fill-122" fill="#313F6B"></path>
        <path d="M1192.96,47.512 C1183.58,47.512 1177.33,55.33 1177.33,63.147 C1177.33,72.529 1185.14,78.783 1192.96,78.783 C1202.34,78.783 1208.6,70.965 1208.6,63.147 C1208.6,55.33 1202.34,47.512 1192.96,47.512" id="Fill-123" fill="#313F6B"></path>
        <path d="M473.746,454.026 C459.674,454.026 448.729,464.971 448.729,479.043 C448.729,493.114 459.674,504.059 473.746,504.059 C487.817,504.059 498.762,493.114 498.762,479.043 C498.762,464.971 487.817,454.026 473.746,454.026" id="Fill-124" fill="#313F6B"></path>
        <path d="M473.746,377.414 C459.674,377.414 448.729,388.358 448.729,402.43 C448.729,416.502 459.674,427.446 473.746,427.446 C487.817,427.446 498.762,416.502 498.762,402.43 C498.762,388.358 487.817,377.414 473.746,377.414" id="Fill-125" fill="#313F6B"></path>
        <path d="M473.746,236.697 C464.364,236.697 458.11,244.515 458.11,252.333 C458.11,261.713 465.928,267.967 473.746,267.967 C483.126,267.967 489.381,260.15 489.381,252.333 C489.381,242.952 481.563,236.697 473.746,236.697" id="Fill-126" fill="#313F6B"></path>
        <path d="M473.746,302.365 C459.674,302.365 448.729,313.31 448.729,327.381 C448.729,341.453 459.674,352.397 473.746,352.397 C487.817,352.397 498.762,341.453 498.762,327.381 C498.762,313.31 487.817,302.365 473.746,302.365" id="Fill-127" fill="#313F6B"></path>
        <path d="M539.413,532.202 C548.794,532.202 555.048,524.384 555.048,516.567 C555.048,507.186 547.231,500.932 539.413,500.932 C530.032,500.932 523.778,508.75 523.778,516.567 C522.215,525.948 530.032,532.202 539.413,532.202" id="Fill-128" fill="#313F6B"></path>
        <path d="M473.746,529.075 C459.674,529.075 448.729,540.02 448.729,554.091 C448.729,568.163 459.674,579.107 473.746,579.107 C487.817,579.107 498.762,568.163 498.762,554.091 C498.762,540.02 487.817,529.075 473.746,529.075" id="Fill-129" fill="#313F6B"></path>
        <path d="M473.746,655.719 C487.817,655.719 498.762,644.775 498.762,630.704 C498.762,616.632 487.817,605.688 473.746,605.688 C459.674,605.688 448.729,616.632 448.729,630.704 C447.166,644.775 459.674,655.719 473.746,655.719" id="Fill-130" fill="#313F6B"></path>
        <path d="M408.078,769.856 C422.149,769.856 433.094,758.912 433.094,744.84 C433.094,730.768 422.149,719.824 408.078,719.824 C394.006,719.824 383.062,730.768 383.062,744.84 C381.498,757.348 394.006,769.856 408.078,769.856" id="Fill-131" fill="#313F6B"></path>
        <path d="M408.078,491.55 C394.006,491.55 383.062,502.496 383.062,516.567 C383.062,530.638 394.006,541.584 408.078,541.584 C422.149,541.584 433.094,530.638 433.094,516.567 C433.094,502.496 422.149,491.55 408.078,491.55" id="Fill-132" fill="#313F6B"></path>
        <path d="M342.41,605.688 C328.338,605.688 317.394,616.632 317.394,630.703 C317.394,644.775 328.338,655.719 342.41,655.719 C356.481,655.719 367.426,644.775 367.426,630.703 C367.426,616.632 356.481,605.688 342.41,605.688" id="Fill-133" fill="#313F6B"></path>
        <path d="M342.41,680.736 C328.338,680.736 317.394,691.68 317.394,705.752 C317.394,719.824 328.338,730.768 342.41,730.768 C356.481,730.768 367.426,719.824 367.426,705.752 C367.426,691.68 356.481,680.736 342.41,680.736" id="Fill-134" fill="#313F6B"></path>
        <path d="M408.078,416.502 C394.006,416.502 383.062,427.446 383.062,441.518 C383.062,455.589 394.006,466.535 408.078,466.535 C422.149,466.535 433.094,455.589 433.094,441.518 C433.094,427.446 422.149,416.502 408.078,416.502" id="Fill-135" fill="#313F6B"></path>
        <path d="M408.078,643.211 C394.006,643.211 383.062,654.156 383.062,668.227 C383.062,682.299 394.006,693.244 408.078,693.244 C422.149,693.244 433.094,682.299 433.094,668.227 C433.094,654.156 422.149,643.211 408.078,643.211" id="Fill-136" fill="#313F6B"></path>
        <path d="M408.078,566.599 C394.006,566.599 383.062,577.545 383.062,591.616 C383.062,605.687 394.006,616.631 408.078,616.631 C422.149,616.631 433.094,605.687 433.094,591.616 C433.094,579.108 422.149,566.599 408.078,566.599" id="Fill-137" fill="#313F6B"></path>
        <path d="M603.517,429.01 C617.588,429.01 628.533,418.065 628.533,403.994 C628.533,389.922 617.588,378.977 603.517,378.977 C589.446,378.977 578.501,389.922 578.501,403.994 C578.501,418.065 589.446,429.01 603.517,429.01" id="Fill-138" fill="#313F6B"></path>
        <path d="M603.517,302.365 C589.445,302.365 578.501,313.31 578.501,327.381 C578.501,341.453 589.446,352.397 603.517,352.397 C617.588,352.397 628.533,341.453 628.533,327.381 C630.097,313.31 617.588,302.365 603.517,302.365" id="Fill-139" fill="#313F6B"></path>
        <path d="M603.517,227.316 C589.445,227.316 578.501,238.26 578.501,252.333 C578.501,266.404 589.446,277.349 603.517,277.349 C617.588,277.349 628.533,266.404 628.533,252.333 C630.097,238.26 617.588,227.316 603.517,227.316" id="Fill-140" fill="#313F6B"></path>
        <path d="M603.517,150.705 C589.445,150.705 578.501,161.649 578.501,175.721 C578.501,189.793 589.446,200.736 603.517,200.736 C617.588,200.736 628.533,189.793 628.533,175.721 C628.533,161.649 617.588,150.705 603.517,150.705" id="Fill-141" fill="#313F6B"></path>
        <path d="M669.185,532.202 C678.565,532.202 684.82,524.384 684.82,516.567 C684.82,507.186 677.002,500.932 669.185,500.932 C659.804,500.932 653.549,508.75 653.549,516.567 C653.549,525.948 661.367,532.202 669.185,532.202" id="Fill-142" fill="#313F6B"></path>
        <path d="M669.185,113.18 C655.113,113.18 644.168,124.125 644.168,138.197 C644.168,152.268 655.113,163.212 669.185,163.212 C683.256,163.212 694.201,152.268 694.201,138.197 C694.201,124.125 683.256,113.18 669.185,113.18" id="Fill-143" fill="#313F6B"></path>
        <path d="M539.413,113.18 C525.342,113.18 514.397,124.125 514.397,138.197 C514.397,152.268 525.342,163.212 539.413,163.212 C553.485,163.212 564.43,152.268 564.43,138.197 C564.43,124.125 553.485,113.18 539.413,113.18" id="Fill-144" fill="#313F6B"></path>
        <path d="M603.517,75.656 C589.445,75.656 578.501,86.6 578.501,100.671 C578.501,114.744 589.446,125.688 603.517,125.688 C617.588,125.688 628.533,114.744 628.533,100.671 C630.097,86.6 617.588,75.656 603.517,75.656" id="Fill-145" fill="#313F6B"></path>
        <path d="M539.413,189.792 C525.342,189.792 514.397,200.736 514.397,214.808 C514.397,228.879 525.342,239.824 539.413,239.824 C553.485,239.824 564.43,228.879 564.43,214.808 C564.43,200.736 553.485,189.792 539.413,189.792" id="Fill-146" fill="#313F6B"></path>
        <path d="M539.413,339.889 C525.342,339.889 514.397,350.834 514.397,364.906 C514.397,378.977 525.342,389.922 539.413,389.922 C553.485,389.922 564.43,378.977 564.43,364.906 C564.43,352.397 553.485,339.889 539.413,339.889" id="Fill-147" fill="#313F6B"></path>
        <path d="M539.413,264.84 C525.342,264.84 514.397,275.786 514.397,289.857 C514.397,303.928 525.342,314.874 539.413,314.874 C553.485,314.874 564.43,303.928 564.43,289.857 C564.43,275.786 553.485,264.84 539.413,264.84" id="Fill-148" fill="#313F6B"></path>
        <path d="M539.413,416.502 C525.342,416.502 514.397,427.446 514.397,441.518 C514.397,455.589 525.342,466.535 539.413,466.535 C553.485,466.535 564.43,455.589 564.43,441.518 C564.43,427.446 553.485,416.502 539.413,416.502" id="Fill-149" fill="#313F6B"></path>
        <path d="M603.517,9.988 C594.136,9.988 587.882,17.805 587.882,25.623 C587.882,35.005 595.699,41.258 603.517,41.258 C612.898,41.258 619.152,33.441 619.152,25.623 C620.715,16.242 612.898,9.988 603.517,9.988" id="Fill-150" fill="#313F6B"></path>
        <path d="M539.413,47.512 C530.032,47.512 523.778,55.33 523.778,63.147 C523.778,72.529 531.596,78.783 539.413,78.783 C548.794,78.783 555.048,70.965 555.048,63.147 C555.048,55.33 547.231,47.512 539.413,47.512" id="Fill-151" fill="#313F6B"></path>
        <path d="M669.185,47.512 C659.804,47.512 653.549,55.33 653.549,63.147 C653.549,72.529 661.367,78.783 669.185,78.783 C678.565,78.783 684.82,70.965 684.82,63.147 C684.82,55.33 678.565,47.512 669.185,47.512" id="Fill-152" fill="#313F6B"></path>
        <path d="M146.971,164.776 C161.042,164.776 171.987,153.832 171.987,139.76 C171.987,125.688 161.042,114.744 146.971,114.744 C132.899,114.744 121.954,125.688 121.954,139.76 C121.954,152.268 132.899,164.776 146.971,164.776" id="Fill-153" fill="#313F6B"></path>
        <path d="M211.075,75.656 C197.003,75.656 186.059,86.6 186.059,100.671 C186.059,114.744 197.003,125.688 211.075,125.688 C225.146,125.688 236.091,114.744 236.091,100.671 C236.091,86.6 225.146,75.656 211.075,75.656" id="Fill-154" fill="#313F6B"></path>
        <path d="M211.075,150.705 C197.003,150.705 186.059,161.649 186.059,175.721 C186.059,189.793 197.003,200.736 211.075,200.736 C225.146,200.736 236.091,189.793 236.091,175.721 C236.091,161.649 225.146,150.705 211.075,150.705" id="Fill-155" fill="#313F6B"></path>
        <path d="M211.075,302.365 C197.003,302.365 186.059,313.31 186.059,327.381 C186.059,341.453 197.003,352.397 211.075,352.397 C225.146,352.397 236.091,341.453 236.091,327.381 C236.091,313.31 225.146,302.365 211.075,302.365" id="Fill-156" fill="#313F6B"></path>
        <path d="M211.075,227.316 C197.003,227.316 186.059,238.26 186.059,252.333 C186.059,266.404 197.003,277.349 211.075,277.349 C225.146,277.349 236.091,266.404 236.091,252.333 C236.091,238.26 225.146,227.316 211.075,227.316" id="Fill-157" fill="#313F6B"></path>
        <path d="M146.971,316.437 C161.042,316.437 171.987,305.492 171.987,291.42 C171.987,277.349 161.042,266.404 146.971,266.404 C132.899,266.404 121.954,277.349 121.954,291.42 C121.954,303.928 132.899,316.437 146.971,316.437" id="Fill-158" fill="#313F6B"></path>
        <path d="M669.185,189.792 C655.113,189.792 644.168,200.736 644.168,214.808 C644.168,228.879 655.113,239.824 669.185,239.824 C683.256,239.824 694.201,228.879 694.201,214.808 C695.765,200.736 683.256,189.792 669.185,189.792" id="Fill-159" fill="#313F6B"></path>
        <path d="M146.971,239.824 C161.042,239.824 171.987,228.879 171.987,214.808 C171.987,200.736 161.042,189.792 146.971,189.792 C132.899,189.792 121.954,200.736 121.954,214.808 C121.954,228.879 132.899,239.824 146.971,239.824" id="Fill-160" fill="#313F6B"></path>
        <path d="M211.075,0.607 C197.003,0.607 186.059,11.551 186.059,25.623 C186.059,39.695 197.003,50.639 211.075,50.639 C225.146,50.639 236.091,39.695 236.091,25.623 C236.091,11.551 225.146,0.607 211.075,0.607" id="Fill-161" fill="#313F6B"></path>
        <path d="M81.303,75.656 C67.231,75.656 56.286,86.6 56.286,100.671 C56.286,114.744 67.231,125.688 81.303,125.688 C95.374,125.688 106.319,114.744 106.319,100.671 C107.882,86.6 95.374,75.656 81.303,75.656" id="Fill-162" fill="#313F6B"></path>
        <g id="Group-166">
            <mask id="mask-6" fill="white">
                <use xlink:href="#path-5"></use>
            </mask>
            <g id="Clip-164"></g>
            <path d="M81.303,0.607 C67.231,0.607 56.286,11.551 56.286,25.623 C56.286,39.695 67.231,50.639 81.303,50.639 C95.374,50.639 106.319,39.695 106.319,25.623 C106.319,11.551 95.374,0.607 81.303,0.607" id="Fill-163" fill="#313F6B" mask="url(#mask-6)"></path>
            <path d="M15.635,47.512 C6.254,47.512 0,55.33 0,63.147 C0,72.529 7.818,78.783 15.635,78.783 C25.017,78.783 31.271,70.965 31.271,63.147 C32.834,55.33 25.017,47.512 15.635,47.512" id="Fill-165" fill="#313F6B" mask="url(#mask-6)"></path>
        </g>
        <path d="M81.303,150.705 C67.231,150.705 56.286,161.649 56.286,175.721 C56.286,189.793 67.231,200.736 81.303,200.736 C95.374,200.736 106.319,189.793 106.319,175.721 C106.319,161.649 95.374,150.705 81.303,150.705" id="Fill-167" fill="#313F6B"></path>
        <path d="M146.971,38.131 C132.899,38.131 121.954,49.076 121.954,63.147 C121.954,77.219 132.899,88.164 146.971,88.164 C161.042,88.164 171.987,77.219 171.987,63.147 C171.987,49.076 161.042,38.131 146.971,38.131" id="Fill-168" fill="#313F6B"></path>
        <path d="M211.075,494.677 C220.456,494.677 226.71,486.86 226.71,479.043 C226.71,469.662 218.893,463.407 211.075,463.407 C201.694,463.407 195.439,471.225 195.439,479.043 C195.439,488.423 203.257,494.677 211.075,494.677" id="Fill-169" fill="#313F6B"></path>
        <g id="Group-173" transform="translate(261.000000, 122.000000)">
            <mask id="mask-8" fill="white">
                <use xlink:href="#path-7"></use>
            </mask>
            <g id="Clip-171"></g>
            <path d="M15.742,0.561 C6.361,0.561 0.107,8.378 0.107,16.197 C0.107,25.578 7.925,31.832 15.742,31.832 C25.123,31.832 31.377,24.014 31.377,16.197 C31.377,8.378 25.123,0.561 15.742,0.561" id="Fill-170" fill="#313F6B" mask="url(#mask-8)"></path>
            <path d="M81.41,676 C90.791,676 97.045,668.182 97.045,660.365 C97.045,650.983 89.228,644.729 81.41,644.729 C72.029,644.729 65.775,652.546 65.775,660.365 C65.775,668.182 72.029,676 81.41,676" id="Fill-172" fill="#313F6B" mask="url(#mask-8)"></path>
        </g>
        <path d="M342.41,311.747 C333.029,311.747 326.775,319.564 326.775,327.381 C326.775,336.762 334.592,343.016 342.41,343.016 C351.791,343.016 358.045,335.199 358.045,327.381 C358.045,319.564 350.228,311.747 342.41,311.747" id="Fill-174" fill="#313F6B"></path>
        <path d="M342.41,236.697 C333.029,236.697 326.775,244.515 326.775,252.333 C326.775,261.713 334.592,267.967 342.41,267.967 C351.791,267.967 358.045,260.15 358.045,252.333 C358.045,242.952 350.228,236.697 342.41,236.697" id="Fill-175" fill="#313F6B"></path>
        <path d="M866.188,236.697 C856.807,236.697 850.553,244.515 850.553,252.333 C850.553,261.713 858.37,267.967 866.188,267.967 C875.569,267.967 881.823,260.15 881.823,252.333 C881.823,242.952 875.569,236.697 866.188,236.697" id="Fill-176" fill="#313F6B"></path>
        <path d="M408.078,349.27 C398.697,349.27 392.442,357.088 392.442,364.906 C392.442,374.287 400.26,380.541 408.078,380.541 C417.459,380.541 423.713,372.723 423.713,364.906 C423.713,357.088 415.896,349.27 408.078,349.27" id="Fill-177" fill="#313F6B"></path>
        <path d="M800.52,349.27 C791.139,349.27 784.885,357.088 784.885,364.906 C784.885,374.287 792.703,380.541 800.52,380.541 C809.901,380.541 816.155,372.723 816.155,364.906 C816.155,357.088 809.901,349.27 800.52,349.27" id="Fill-178" fill="#313F6B"></path>
        <path d="M276.742,491.55 C262.67,491.55 251.726,502.496 251.726,516.567 C251.726,530.638 262.67,541.584 276.742,541.584 C290.814,541.584 301.758,530.638 301.758,516.567 C301.758,502.496 290.814,491.55 276.742,491.55" id="Fill-179" fill="#313F6B"></path>
        <path d="M276.742,566.599 C262.67,566.599 251.726,577.545 251.726,591.616 C251.726,605.687 262.67,616.631 276.742,616.631 C290.814,616.631 301.758,605.687 301.758,591.616 C301.758,579.108 290.814,566.599 276.742,566.599" id="Fill-180" fill="#313F6B"></path>
        <path d="M211.075,377.414 C197.003,377.414 186.059,388.358 186.059,402.43 C186.059,416.502 197.003,427.446 211.075,427.446 C225.146,427.446 236.091,416.502 236.091,402.43 C236.091,388.358 225.146,377.414 211.075,377.414" id="Fill-181" fill="#313F6B"></path>
        <path d="M342.41,377.414 C328.338,377.414 317.394,388.358 317.394,402.43 C317.394,416.502 328.338,427.446 342.41,427.446 C356.481,427.446 367.426,416.502 367.426,402.43 C367.426,388.358 356.481,377.414 342.41,377.414" id="Fill-182" fill="#313F6B"></path>
        <path d="M342.41,454.026 C328.338,454.026 317.394,464.971 317.394,479.043 C317.394,493.114 328.338,504.059 342.41,504.059 C356.481,504.059 367.426,493.114 367.426,479.043 C367.426,464.971 356.481,454.026 342.41,454.026" id="Fill-183" fill="#313F6B"></path>
        <path d="M342.41,529.075 C328.338,529.075 317.394,540.02 317.394,554.091 C317.394,568.163 328.338,579.108 342.41,579.108 C356.481,579.108 367.426,568.163 367.426,554.091 C367.426,540.02 356.481,529.075 342.41,529.075" id="Fill-184" fill="#313F6B"></path>
        <path d="M276.742,189.792 C262.67,189.792 251.726,200.736 251.726,214.808 C251.726,228.879 262.67,239.824 276.742,239.824 C290.814,239.824 301.758,228.879 301.758,214.808 C301.758,200.736 290.814,189.792 276.742,189.792" id="Fill-185" fill="#313F6B"></path>
        <path d="M276.742,416.502 C262.67,416.502 251.726,427.446 251.726,441.518 C251.726,455.589 262.67,466.535 276.742,466.535 C290.814,466.535 301.758,455.589 301.758,441.518 C301.758,427.446 290.814,416.502 276.742,416.502" id="Fill-186" fill="#313F6B"></path>
        <path d="M276.742,683.863 C286.123,683.863 292.377,676.045 292.377,668.227 C292.377,658.846 284.56,652.592 276.742,652.592 C267.361,652.592 261.107,660.41 261.107,668.227 C261.107,677.609 267.361,683.863 276.742,683.863" id="Fill-187" fill="#313F6B"></path>
        <path d="M276.742,339.889 C262.67,339.889 251.726,350.834 251.726,364.906 C251.726,378.977 262.67,389.922 276.742,389.922 C290.814,389.922 301.758,378.977 301.758,364.906 C301.758,352.397 290.814,339.889 276.742,339.889" id="Fill-188" fill="#313F6B"></path>
        <path d="M276.742,264.84 C262.67,264.84 251.726,275.786 251.726,289.857 C251.726,303.928 262.67,314.874 276.742,314.874 C290.814,314.874 301.758,303.928 301.758,289.857 C301.758,275.786 290.814,264.84 276.742,264.84" id="Fill-189" fill="#313F6B"></path>
        <path d="M931.856,683.863 C941.237,683.863 947.491,676.045 947.491,668.227 C947.491,658.846 939.673,652.592 931.856,652.592 C924.038,652.592 916.221,660.41 916.221,668.227 C916.221,677.609 922.475,683.863 931.856,683.863" id="Fill-190" fill="#313F6B"></path>
        <path d="M1063.19,189.792 C1049.12,189.792 1038.18,200.736 1038.18,214.808 C1038.18,228.879 1049.12,239.824 1063.19,239.824 C1077.26,239.824 1088.21,228.879 1088.21,214.808 C1088.21,200.736 1077.26,189.792 1063.19,189.792" id="Fill-191" fill="#313F6B"></path>
        <path d="M1063.19,113.18 C1049.12,113.18 1038.18,124.125 1038.18,138.197 C1038.18,152.268 1049.12,163.212 1063.19,163.212 C1077.26,163.212 1088.21,152.268 1088.21,138.197 C1088.21,124.125 1077.26,113.18 1063.19,113.18" id="Fill-192" fill="#313F6B"></path>
        <path d="M1063.19,316.437 C1077.26,316.437 1088.21,305.492 1088.21,291.42 C1088.21,277.349 1077.26,266.404 1063.19,266.404 C1049.12,266.404 1038.18,277.349 1038.18,291.42 C1036.61,303.928 1049.12,316.437 1063.19,316.437" id="Fill-193" fill="#313F6B"></path>
        <path d="M1128.86,202.299 C1142.93,202.299 1153.87,191.355 1153.87,177.284 C1153.87,163.212 1142.93,152.268 1128.86,152.268 C1114.79,152.268 1103.84,163.212 1103.84,177.284 C1103.84,191.355 1114.79,202.299 1128.86,202.299" id="Fill-194" fill="#313F6B"></path>
        <path d="M1063.19,38.131 C1049.12,38.131 1038.18,49.076 1038.18,63.147 C1038.18,77.219 1049.12,88.164 1063.19,88.164 C1077.26,88.164 1088.21,77.219 1088.21,63.147 C1088.21,49.076 1077.26,38.131 1063.19,38.131" id="Fill-195" fill="#313F6B"></path>
        <path d="M1128.86,75.656 C1114.79,75.656 1103.84,86.6 1103.84,100.671 C1103.84,114.744 1114.79,125.688 1128.86,125.688 C1142.93,125.688 1153.87,114.744 1153.87,100.671 C1153.87,86.6 1142.93,75.656 1128.86,75.656" id="Fill-196" fill="#313F6B"></path>
        <path d="M1128.86,0.607 C1114.79,0.607 1103.84,11.551 1103.84,25.623 C1103.84,39.695 1114.79,50.639 1128.86,50.639 C1142.93,50.639 1153.87,39.695 1153.87,25.623 C1153.87,11.551 1142.93,0.607 1128.86,0.607" id="Fill-197" fill="#313F6B"></path>
        <path d="M997.523,302.365 C983.452,302.365 972.507,313.31 972.507,327.381 C972.507,341.453 983.452,352.397 997.523,352.397 C1011.6,352.397 1022.54,341.453 1022.54,327.381 C1022.54,313.31 1011.6,302.365 997.523,302.365" id="Fill-198" fill="#313F6B"></path>
        <path d="M997.523,150.705 C983.452,150.705 972.507,161.649 972.507,175.721 C972.507,189.793 983.452,200.736 997.523,200.736 C1011.6,200.736 1022.54,189.793 1022.54,175.721 C1022.54,161.649 1011.6,150.705 997.523,150.705" id="Fill-199" fill="#313F6B"></path>
        <path d="M997.523,75.656 C983.452,75.656 972.507,86.6 972.507,100.671 C972.507,114.744 983.452,125.688 997.523,125.688 C1011.6,125.688 1022.54,114.744 1022.54,100.671 C1022.54,86.6 1011.6,75.656 997.523,75.656" id="Fill-200" fill="#313F6B"></path>
        <g id="Group-204" transform="translate(972.000000, 0.000000)">
            <mask id="mask-10" fill="white">
                <use xlink:href="#path-9"></use>
            </mask>
            <g id="Clip-202"></g>
            <path d="M25.523,0.607 C11.452,0.607 0.507,11.551 0.507,25.623 C0.507,39.695 11.452,50.639 25.523,50.639 C39.6,50.639 50.54,39.695 50.54,25.623 C50.54,11.551 39.6,0.607 25.523,0.607" id="Fill-201" fill="#313F6B" mask="url(#mask-10)"></path>
            <path d="M389.82,798 C399.2,798 405.46,790.182 405.46,782.365 C405.46,772.983 397.64,766.729 389.82,766.729 C380.44,766.729 374.19,774.546 374.19,782.365 C372.62,790.182 380.44,798 389.82,798" id="Fill-203" fill="#313F6B" mask="url(#mask-10)"></path>
        </g>
        <path d="M997.523,494.677 C1006.9,494.677 1013.16,486.86 1013.16,479.043 C1013.16,469.662 1005.34,463.407 997.523,463.407 C988.143,463.407 981.889,471.225 981.889,479.043 C981.889,488.423 988.143,494.677 997.523,494.677" id="Fill-205" fill="#313F6B"></path>
        <path d="M997.523,377.414 C983.452,377.414 972.507,388.358 972.507,402.43 C972.507,416.502 983.452,427.446 997.523,427.446 C1011.6,427.446 1022.54,416.502 1022.54,402.43 C1022.54,388.358 1011.6,377.414 997.523,377.414" id="Fill-206" fill="#313F6B"></path>
        <path d="M997.523,227.316 C983.452,227.316 972.507,238.26 972.507,252.333 C972.507,266.404 983.452,277.349 997.523,277.349 C1011.6,277.349 1022.54,266.404 1022.54,252.333 C1022.54,238.26 1011.6,227.316 997.523,227.316" id="Fill-207" fill="#313F6B"></path>
        <path d="M1361.82,529.075 C1347.75,529.075 1336.81,540.02 1336.81,554.091 C1336.81,568.163 1347.75,579.107 1361.82,579.107 C1375.89,579.107 1386.84,568.163 1386.84,554.091 C1386.84,540.02 1375.89,529.075 1361.82,529.075" id="Fill-208" fill="#313F6B"></path>
        <path d="M1361.82,680.736 C1347.75,680.736 1336.81,691.68 1336.81,705.752 C1336.81,719.824 1347.75,730.768 1361.82,730.768 C1375.89,730.768 1386.84,719.824 1386.84,705.752 C1386.84,691.68 1375.89,680.736 1361.82,680.736" id="Fill-209" fill="#313F6B"></path>
        <path d="M1361.82,605.688 C1347.75,605.688 1336.81,616.632 1336.81,630.703 C1336.81,644.775 1347.75,655.719 1361.82,655.719 C1375.89,655.719 1386.84,644.775 1386.84,630.703 C1386.84,616.632 1375.89,605.688 1361.82,605.688" id="Fill-210" fill="#313F6B"></path>
        <path d="M1425.93,38.131 C1411.85,38.131 1400.91,49.076 1400.91,63.147 C1400.91,77.219 1411.85,88.164 1425.93,88.164 C1440,88.164 1450.94,77.219 1450.94,63.147 C1452.51,49.076 1440,38.131 1425.93,38.131" id="Fill-211" fill="#313F6B"></path>
        <path d="M1425.93,113.18 C1411.85,113.18 1400.91,124.125 1400.91,138.197 C1400.91,152.268 1411.85,163.212 1425.93,163.212 C1440,163.212 1450.94,152.268 1450.94,138.197 C1450.94,124.125 1440,113.18 1425.93,113.18" id="Fill-212" fill="#313F6B"></path>
        <path d="M1425.93,189.792 C1411.85,189.792 1400.91,200.736 1400.91,214.808 C1400.91,228.879 1411.85,239.824 1425.93,239.824 C1440,239.824 1450.94,228.879 1450.94,214.808 C1452.51,200.736 1440,189.792 1425.93,189.792" id="Fill-213" fill="#313F6B"></path>
        <path d="M1361.82,302.365 C1347.75,302.365 1336.81,313.31 1336.81,327.381 C1336.81,341.453 1347.75,352.397 1361.82,352.397 C1375.89,352.397 1386.84,341.453 1386.84,327.381 C1386.84,313.31 1375.89,302.365 1361.82,302.365" id="Fill-214" fill="#313F6B"></path>
        <path d="M1361.82,454.026 C1347.75,454.026 1336.81,464.971 1336.81,479.043 C1336.81,493.114 1347.75,504.059 1361.82,504.059 C1375.89,504.059 1386.84,493.114 1386.84,479.043 C1386.84,464.971 1375.89,454.026 1361.82,454.026" id="Fill-215" fill="#313F6B"></path>
        <path d="M1361.82,227.316 C1347.75,227.316 1336.81,238.26 1336.81,252.333 C1336.81,266.404 1347.75,277.349 1361.82,277.349 C1375.89,277.349 1386.84,266.404 1386.84,252.333 C1386.84,238.26 1375.89,227.316 1361.82,227.316" id="Fill-216" fill="#313F6B"></path>
        <path d="M1361.82,75.656 C1347.75,75.656 1336.81,86.6 1336.81,100.671 C1336.81,114.744 1347.75,125.688 1361.82,125.688 C1375.89,125.688 1386.84,114.744 1386.84,100.671 C1386.84,86.6 1375.89,75.656 1361.82,75.656" id="Fill-217" fill="#313F6B"></path>
        <path d="M1361.82,150.705 C1347.75,150.705 1336.81,161.649 1336.81,175.721 C1336.81,189.793 1347.75,200.736 1361.82,200.736 C1375.89,200.736 1386.84,189.793 1386.84,175.721 C1386.84,161.649 1375.89,150.705 1361.82,150.705" id="Fill-218" fill="#313F6B"></path>
        <path d="M1361.82,0.607 C1347.75,0.607 1336.81,11.551 1336.81,25.623 C1336.81,39.695 1347.75,50.639 1361.82,50.639 C1375.89,50.639 1386.84,39.695 1386.84,25.623 C1386.84,11.551 1375.89,0.607 1361.82,0.607" id="Fill-219" fill="#313F6B"></path>
        <path d="M1361.82,377.414 C1347.75,377.414 1336.81,388.358 1336.81,402.43 C1336.81,416.502 1347.75,427.446 1361.82,427.446 C1375.89,427.446 1386.84,416.502 1386.84,402.43 C1386.84,389.922 1375.89,377.414 1361.82,377.414" id="Fill-220" fill="#313F6B"></path>
        <path d="M669.185,264.84 C655.113,264.84 644.168,275.786 644.168,289.857 C644.168,303.928 655.113,314.874 669.185,314.874 C683.256,314.874 694.201,303.928 694.201,289.857 C695.765,275.786 683.256,264.84 669.185,264.84" id="Fill-221" fill="#313F6B"></path>
        <path d="M800.52,416.502 C786.448,416.502 775.504,427.446 775.504,441.518 C775.504,455.589 786.448,466.535 800.52,466.535 C814.592,466.535 825.537,455.589 825.537,441.518 C825.537,427.446 814.592,416.502 800.52,416.502" id="Fill-222" fill="#313F6B"></path>
        <g id="Group-226" transform="translate(709.000000, 529.000000)">
            <mask id="mask-12" fill="white">
                <use xlink:href="#path-11"></use>
            </mask>
            <g id="Clip-224"></g>
            <path d="M25.853,0.075 C11.781,0.075 0.836,11.02 0.836,25.091 C0.836,39.163 11.781,50.108 25.853,50.108 C39.924,50.108 50.869,39.163 50.869,25.091 C52.432,11.02 39.924,0.075 25.853,0.075" id="Fill-223" fill="#313F6B" mask="url(#mask-12)"></path>
            <path d="M157.188,269 C166.569,269 172.823,261.182 172.823,253.365 C172.823,243.983 165.006,237.729 157.188,237.729 C147.807,237.729 141.553,245.546 141.553,253.365 C141.553,261.182 147.807,269 157.188,269" id="Fill-225" fill="#313F6B" mask="url(#mask-12)"></path>
        </g>
        <path d="M800.52,491.55 C786.448,491.55 775.504,502.496 775.504,516.567 C775.504,530.638 786.448,541.584 800.52,541.584 C814.592,541.584 825.537,530.638 825.537,516.567 C825.537,502.496 814.592,491.55 800.52,491.55" id="Fill-227" fill="#313F6B"></path>
        <path d="M800.52,769.856 C814.592,769.856 825.537,758.912 825.537,744.84 C825.537,730.768 814.592,719.824 800.52,719.824 C786.448,719.824 775.504,730.768 775.504,744.84 C775.504,757.348 786.448,769.856 800.52,769.856" id="Fill-228" fill="#313F6B"></path>
        <path d="M800.52,566.599 C786.448,566.599 775.504,577.545 775.504,591.616 C775.504,605.687 786.448,616.631 800.52,616.631 C814.592,616.631 825.537,605.687 825.537,591.616 C825.537,579.108 814.592,566.599 800.52,566.599" id="Fill-229" fill="#313F6B"></path>
        <path d="M800.52,643.211 C786.448,643.211 775.504,654.156 775.504,668.227 C775.504,682.299 786.448,693.244 800.52,693.244 C814.592,693.244 825.537,682.299 825.537,668.227 C825.537,654.156 814.592,643.211 800.52,643.211" id="Fill-230" fill="#313F6B"></path>
        <path d="M734.853,655.719 C748.924,655.719 759.869,644.775 759.869,630.704 C759.869,616.632 748.924,605.688 734.853,605.688 C720.781,605.688 709.836,616.632 709.836,630.704 C709.836,644.775 720.781,655.719 734.853,655.719" id="Fill-231" fill="#313F6B"></path>
        <path d="M734.853,236.697 C725.471,236.697 719.217,244.515 719.217,252.333 C719.217,261.713 727.035,267.967 734.853,267.967 C744.233,267.967 750.487,260.15 750.487,252.333 C750.487,242.952 744.233,236.697 734.853,236.697" id="Fill-232" fill="#313F6B"></path>
        <path d="M669.185,416.502 C655.113,416.502 644.168,427.446 644.168,441.518 C644.168,455.589 655.113,466.535 669.185,466.535 C683.256,466.535 694.201,455.589 694.201,441.518 C695.765,427.446 683.256,416.502 669.185,416.502" id="Fill-233" fill="#313F6B"></path>
        <path d="M669.185,339.889 C655.113,339.889 644.168,350.834 644.168,364.906 C644.168,378.977 655.113,389.922 669.185,389.922 C683.256,389.922 694.201,378.977 694.201,364.906 C695.765,352.397 683.256,339.889 669.185,339.889" id="Fill-234" fill="#313F6B"></path>
        <path d="M734.853,454.026 C720.781,454.026 709.836,464.971 709.836,479.043 C709.836,493.114 720.781,504.059 734.853,504.059 C748.924,504.059 759.869,493.114 759.869,479.043 C761.432,464.971 748.924,454.026 734.853,454.026" id="Fill-235" fill="#313F6B"></path>
        <path d="M734.853,302.365 C720.781,302.365 709.836,313.31 709.836,327.381 C709.836,341.453 720.781,352.397 734.853,352.397 C748.924,352.397 759.869,341.453 759.869,327.381 C761.432,313.31 748.924,302.365 734.853,302.365" id="Fill-236" fill="#313F6B"></path>
        <path d="M734.853,377.414 C720.781,377.414 709.836,388.358 709.836,402.43 C709.836,416.502 720.781,427.446 734.853,427.446 C748.924,427.446 759.869,416.502 759.869,402.43 C759.869,388.358 748.924,377.414 734.853,377.414" id="Fill-237" fill="#313F6B"></path>
        <path d="M931.856,339.889 C917.784,339.889 906.839,350.834 906.839,364.906 C906.839,378.977 917.784,389.922 931.856,389.922 C945.928,389.922 956.872,378.977 956.872,364.906 C956.872,352.397 945.928,339.889 931.856,339.889" id="Fill-238" fill="#313F6B"></path>
        <path d="M931.856,264.84 C917.784,264.84 906.839,275.786 906.839,289.857 C906.839,303.928 917.784,314.874 931.856,314.874 C945.928,314.874 956.872,303.928 956.872,289.857 C956.872,275.786 945.928,264.84 931.856,264.84" id="Fill-239" fill="#313F6B"></path>
        <path d="M931.856,566.599 C917.784,566.599 906.839,577.545 906.839,591.616 C906.839,605.687 917.784,616.631 931.856,616.631 C945.928,616.631 956.872,605.687 956.872,591.616 C956.872,579.108 945.928,566.599 931.856,566.599" id="Fill-240" fill="#313F6B"></path>
        <path d="M866.188,311.747 C856.807,311.747 850.553,319.564 850.553,327.381 C850.553,336.762 858.37,343.016 866.188,343.016 C875.569,343.016 881.823,335.199 881.823,327.381 C881.823,319.564 875.569,311.747 866.188,311.747" id="Fill-241" fill="#313F6B"></path>
        <path d="M931.856,491.55 C917.784,491.55 906.839,502.496 906.839,516.567 C906.839,530.638 917.784,541.584 931.856,541.584 C945.928,541.584 956.872,530.638 956.872,516.567 C956.872,502.496 945.928,491.55 931.856,491.55" id="Fill-242" fill="#313F6B"></path>
        <path d="M931.856,416.502 C917.784,416.502 906.839,427.446 906.839,441.518 C906.839,455.589 917.784,466.535 931.856,466.535 C945.928,466.535 956.872,455.589 956.872,441.518 C956.872,427.446 945.928,416.502 931.856,416.502" id="Fill-243" fill="#313F6B"></path>
        <path d="M931.856,122.561 C922.475,122.561 916.221,130.378 916.221,138.197 C916.221,147.578 924.038,153.832 931.856,153.832 C939.673,153.832 947.491,146.014 947.491,138.197 C947.491,130.378 939.673,122.561 931.856,122.561" id="Fill-244" fill="#313F6B"></path>
        <path d="M931.856,189.792 C917.784,189.792 906.839,200.736 906.839,214.808 C906.839,228.879 917.784,239.824 931.856,239.824 C945.928,239.824 956.872,228.879 956.872,214.808 C956.872,200.736 945.928,189.792 931.856,189.792" id="Fill-245" fill="#313F6B"></path>
        <path d="M866.188,454.026 C852.116,454.026 841.172,464.971 841.172,479.043 C841.172,493.114 852.116,504.059 866.188,504.059 C880.26,504.059 891.204,493.114 891.204,479.043 C891.204,464.971 880.26,454.026 866.188,454.026" id="Fill-246" fill="#313F6B"></path>
        <path d="M866.188,377.414 C852.116,377.414 841.172,388.358 841.172,402.43 C841.172,416.502 852.116,427.446 866.188,427.446 C880.26,427.446 891.204,416.502 891.204,402.43 C891.204,388.358 880.26,377.414 866.188,377.414" id="Fill-247" fill="#313F6B"></path>
        <path d="M866.188,529.075 C852.116,529.075 841.172,540.02 841.172,554.091 C841.172,568.163 852.116,579.107 866.188,579.107 C880.26,579.107 891.204,568.163 891.204,554.091 C891.204,540.02 880.26,529.075 866.188,529.075" id="Fill-248" fill="#313F6B"></path>
        <path d="M1425.93,264.84 C1411.85,264.84 1400.91,275.786 1400.91,289.857 C1400.91,303.928 1411.85,314.874 1425.93,314.874 C1440,314.874 1450.94,303.928 1450.94,289.857 C1452.51,275.786 1440,264.84 1425.93,264.84" id="Fill-249" fill="#313F6B"></path>
        <path d="M866.188,605.688 C852.116,605.688 841.172,616.632 841.172,630.703 C841.172,644.775 852.116,655.719 866.188,655.719 C880.26,655.719 891.204,644.775 891.204,630.703 C891.204,616.632 880.26,605.688 866.188,605.688" id="Fill-250" fill="#313F6B"></path>
        <path d="M866.188,680.736 C852.116,680.736 841.172,691.68 841.172,705.752 C841.172,719.824 852.116,730.768 866.188,730.768 C880.26,730.768 891.204,719.824 891.204,705.752 C891.204,691.68 880.26,680.736 866.188,680.736" id="Fill-251" fill="#313F6B"></path>
    </g>
</svg>